<?xml version="1.0" encoding="utf-8"?>
<!-- Generator: Adobe Illustrator 24.3.0, SVG Export Plug-In . SVG Version: 6.00 Build 0)  -->
<svg version="1.1" id="Ebene_1" xmlns="http://www.w3.org/2000/svg" xmlns:xlink="http://www.w3.org/1999/xlink" x="0px" y="0px"
	 viewBox="0 0 582 935.1" style="enable-background:new 0 0 582 935.1;" xml:space="preserve">
<style type="text/css">
	.st0{fill:#100A3A;}
	.st1{fill:url(#SVGID_1_);}
	.st2{fill:url(#SVGID_2_);}
	.st3{opacity:0.25;fill:#1B0B75;enable-background:new    ;}
	.st4{fill:url(#SVGID_3_);}
	.st5{fill:url(#SVGID_4_);}
	.st6{fill:url(#SVGID_5_);}
	.st7{fill:url(#SVGID_6_);}
	.st8{fill:url(#SVGID_7_);}
	.st9{fill:url(#SVGID_8_);}
	.st10{fill:url(#SVGID_9_);}
	.st11{fill:url(#SVGID_10_);}
	.st12{fill:url(#SVGID_11_);}
	.st13{fill:url(#SVGID_12_);}
	.st14{fill:url(#SVGID_13_);}
	.st15{fill:url(#SVGID_14_);}
	.st16{fill:url(#SVGID_15_);}
	.st17{fill:url(#SVGID_16_);}
	.st18{fill:url(#SVGID_17_);}
	.st19{fill:url(#SVGID_18_);}
	.st20{fill:url(#SVGID_19_);}
	.st21{fill:url(#SVGID_20_);}
	.st22{fill:url(#SVGID_21_);}
	.st23{fill:url(#SVGID_22_);}
	.st24{fill:url(#SVGID_23_);}
	.st25{fill:url(#SVGID_24_);}
	.st26{fill:#1B0B75;}
	.st27{fill:#2156DC;}
	.st28{fill:#702283;}
	.st29{fill:#5F10B1;}
	.st30{fill:url(#SVGID_25_);}
	.st31{fill:url(#SVGID_26_);}
	.st32{fill:url(#SVGID_27_);}
	.st33{fill:url(#SVGID_28_);}
	.st34{fill:url(#SVGID_29_);}
	.st35{fill:url(#SVGID_30_);}
	.st36{fill:url(#SVGID_31_);}
	.st37{fill:url(#SVGID_32_);}
	.st38{fill:url(#SVGID_33_);}
	.st39{fill:url(#SVGID_34_);}
	.st40{fill:#271D66;}
	.st41{fill:#4B2E87;}
	.st42{fill:#403E90;}
	.st43{fill:#2B519E;}
	.st44{fill:#4372B6;}
	.st45{fill:url(#SVGID_35_);}
	.st46{opacity:0.25;fill:#2D2766;enable-background:new    ;}
	.st47{fill:#5B398D;}
	.st48{fill:url(#SVGID_36_);}
</style>
<g>
	<path class="st0" d="M582,735.7c-25.9,29.3-53,56.4-81.1,81.1c3.7,1.2,6.4,4.7,6.4,8.8c0,5.1-4.1,9.2-9.2,9.2
		c-4.6,0-8.4-3.3-9.1-7.7c-52.2,44.3-107.4,80.6-163.1,108h84.5c-6.1-2.1-10.4-7.8-10.4-14.6c0-8.5,6.9-15.5,15.5-15.5
		s15.5,6.9,15.5,15.5c0,6.8-4.4,12.5-10.4,14.6H582V735.7z M459.3,876c-4.9,0-8.9-4-8.9-8.9s4-8.9,8.9-8.9s8.9,4,8.9,8.9
		S464.2,876,459.3,876z M510.1,896.9c-4,0-7.2-3.2-7.2-7.2s3.2-7.2,7.2-7.2s7.2,3.2,7.2,7.2S514.1,896.9,510.1,896.9z M558.5,842.2
		c-1.7,0-3-1.4-3-3.1s1.4-3.1,3-3.1s3,1.4,3,3.1S560.2,842.2,558.5,842.2z M569.8,783.5c-2.6,0-4.7-2.1-4.7-4.7s2.1-4.7,4.7-4.7
		s4.7,2.1,4.7,4.7S572.4,783.5,569.8,783.5z"/>
	<path class="st0" d="M0,0v107c41.7-41.2,85.9-77,131.3-107H0z M39.6,56.3c-1.7,0-3-1.4-3-3c0-1.7,1.4-3,3-3c1.7,0,3,1.4,3,3
		C42.6,55,41.2,56.3,39.6,56.3z M44.8,21c-1.7,0-3-1.4-3-3c0-1.7,1.4-3,3-3c1.7,0,3,1.4,3,3C47.9,19.7,46.5,21,44.8,21z M82.4,13.1
		c-1.7,0-3-1.4-3-3c0-1.7,1.4-3,3-3c1.7,0,3,1.4,3,3C85.4,11.7,84.1,13.1,82.4,13.1z"/>
	<path class="st0" d="M488.8,825.5c0-5.1,4.1-9.2,9.2-9.2c1,0,1.9,0.2,2.8,0.4c28.1-24.7,55.2-51.8,81.1-81.1v-75.6
		c-4.3-0.8-7.6-4.5-7.6-9.1s3.3-8.3,7.6-9.1V0H131.3C85.9,29.9,41.7,65.7,0,107v828.1h325.8c55.7-27.5,110.9-63.7,163.1-108
		C488.9,826.6,488.8,826.1,488.8,825.5z M530.8,764.4c-9.9,0-17.9-8-17.9-17.9s8-17.9,17.9-17.9s17.9,8,17.9,17.9
		S540.7,764.4,530.8,764.4z M535.9,427.7c-2,0-3.6-1.6-3.6-3.6s1.6-3.6,3.6-3.6s3.6,1.6,3.6,3.6S537.9,427.7,535.9,427.7z
		 M545.8,521.4c0,4-3.2,7.2-7.2,7.2s-7.2-3.2-7.2-7.2s3.2-7.2,7.2-7.2S545.8,517.4,545.8,521.4z M534,317.1c-1.7,0-3-1.4-3-3
		s1.4-3,3-3s3,1.4,3,3S535.7,317.1,534,317.1z M534,678.2c1.7,0,3,1.4,3,3.1s-1.4,3.1-3,3.1s-3-1.4-3-3.1S532.3,678.2,534,678.2z
		 M549.1,649c-1.7,0-3-1.4-3-3s1.4-3,3-3s3,1.4,3,3S550.7,649,549.1,649z M567.3,198.5c1.7,0,3,1.4,3,3s-1.4,3-3,3s-3-1.4-3-3
		S565.6,198.5,567.3,198.5z M561.6,471.9c0,1.7-1.4,3-3,3s-3-1.4-3-3s1.4-3,3-3S561.6,470.3,561.6,471.9z M555.9,71.8
		c1.7,0,3,1.4,3,3c0,1.7-1.4,3-3,3s-3-1.4-3-3C552.8,73.2,554.2,71.8,555.9,71.8z M558.1,391.1c0,5.1-4.1,9.2-9.2,9.2
		s-9.2-4.1-9.2-9.2s4.1-9.2,9.2-9.2S558.1,386,558.1,391.1z M527.3,111.1c8.5,0,15.5,6.9,15.5,15.5c0,8.5-6.9,15.5-15.5,15.5
		s-15.5-6.9-15.5-15.5C511.9,118,518.8,111.1,527.3,111.1z M520.9,166.3c6.2,0,11.2,5,11.2,11.2s-5,11.2-11.2,11.2
		s-11.2-5-11.2-11.2S514.8,166.3,520.9,166.3z M519.6,249.6c-5.1,0-9.2-4.1-9.2-9.2s4.1-9.2,9.2-9.2s9.2,4.1,9.2,9.2
		S524.7,249.6,519.6,249.6z M522.6,544.1c0,2.6-2.1,4.7-4.7,4.7s-4.7-2.1-4.7-4.7s2.1-4.7,4.7-4.7S522.6,541.5,522.6,544.1z
		 M518.1,588.4c6.2,0,11.2,5,11.2,11.2s-5,11.2-11.2,11.2s-11.2-5-11.2-11.2S511.9,588.4,518.1,588.4z M491,415c0,1.7-1.4,3-3,3
		s-3-1.4-3-3s1.4-3,3-3S491,413.3,491,415z M481,71.8c4.6,0,8.4,3.8,8.4,8.4c0,4.6-3.8,8.4-8.4,8.4s-8.4-3.8-8.4-8.4
		C472.6,75.5,476.4,71.8,481,71.8z M462.4,190.8l3.9-1.3c0.4-0.1,0.7-0.4,0.8-0.8l1.3-3.9c0.1-0.4,0.4-0.7,0.8-0.8
		c0.7-0.3,1.5,0.1,1.7,0.8l1.3,3.9c0.1,0.4,0.4,0.7,0.8,0.8l3.9,1.3c0.4,0.1,0.7,0.4,0.8,0.8c0.2,0.7-0.1,1.5-0.8,1.7l-3.9,1.4
		c-0.4,0.1-0.7,0.4-0.8,0.8l-1.3,3.9c-0.1,0.4-0.4,0.7-0.8,0.8c-0.7,0.2-1.5-0.1-1.7-0.8l-1.3-3.9c-0.1-0.4-0.4-0.7-0.8-0.8
		l-3.9-1.4c-0.4-0.1-0.7-0.4-0.8-0.8C461.3,191.8,461.7,191.1,462.4,190.8z M476.8,528c0,1.7-1.4,3-3,3s-3-1.4-3-3s1.4-3,3-3
		S476.8,526.3,476.8,528z M468.7,345.7c0,1.7-1.4,3-3,3s-3-1.4-3-3s1.4-3,3-3S468.7,344,468.7,345.7z M418.3,3.3c1.7,0,3,1.4,3,3
		c0,1.7-1.4,3-3,3s-3-1.4-3-3C415.3,4.6,416.7,3.3,418.3,3.3z M415.7,411.9c0,1.7-1.4,3-3,3s-3-1.4-3-3s1.4-3,3-3
		S415.7,410.2,415.7,411.9z M405.9,233.6c1.7,0,3,1.4,3,3s-1.4,3-3,3s-3-1.4-3-3S404.2,233.6,405.9,233.6z M401.4,344.1
		c1-0.3,2.1,0.2,2.4,1.2l1.9,5.5c0.2,0.6,0.6,1,1.2,1.2l5.5,1.9c0.6,0.2,1,0.6,1.2,1.2c0.3,1-0.2,2.1-1.2,2.4l-5.5,1.9
		c-0.6,0.2-1,0.6-1.2,1.2l-1.9,5.5c-0.2,0.6-0.6,1-1.2,1.2c-1,0.3-2.1-0.2-2.4-1.2l-1.9-5.5c-0.2-0.5-0.6-1-1.2-1.2l-5.5-1.9
		c-0.6-0.2-1-0.6-1.2-1.2c-0.3-1,0.2-2.1,1.2-2.4l5.5-1.9c0.5-0.2,1-0.6,1.2-1.2l1.9-5.5C400.4,344.7,400.8,344.3,401.4,344.1z
		 M391.9,186.9c0-1.7,1.4-3,3-3s3,1.4,3,3s-1.4,3-3,3S391.9,188.6,391.9,186.9z M390.7,7.6c5.1,0,9.2,4.1,9.2,9.2s-4.1,9.2-9.2,9.2
		s-9.2-4.1-9.2-9.2S385.6,7.6,390.7,7.6z M359.4,110.1c5.1,0,9.2,4.1,9.2,9.2s-4.1,9.2-9.2,9.2s-9.2-4.1-9.2-9.2
		S354.3,110.1,359.4,110.1z M362,300.8c0,1.7-1.4,3-3,3s-3-1.4-3-3s1.4-3,3-3S362,299.2,362,300.8z M352.8,522.1c0,1.7-1.4,3-3,3
		s-3-1.4-3-3s1.4-3,3-3S352.8,520.4,352.8,522.1z M348.6,72.8c0,1.7-1.4,3-3,3s-3-1.4-3-3c0-1.7,1.4-3,3-3S348.6,71.2,348.6,72.8z
		 M337.5,144c0-2.2,1.8-4,4-4s4,1.8,4,4s-1.8,4-4,4S337.5,146.2,337.5,144z M344.5,688.3c5.1,0,9.2,4.1,9.2,9.2s-4.1,9.2-9.2,9.2
		s-9.2-4.1-9.2-9.2S339.4,688.3,344.5,688.3z M335.1,34c5.1,0,9.2,4.1,9.2,9.2s-4.1,9.2-9.2,9.2s-9.2-4.1-9.2-9.2S330,34,335.1,34z
		 M311.1,116.2c1.7,0,3,1.4,3,3c0,1.7-1.4,3-3,3s-3-1.4-3-3C308,117.6,309.4,116.2,311.1,116.2z M241.5,38.4c1.7,0,3,1.4,3,3
		c0,1.7-1.4,3-3,3c-1.7,0-3-1.4-3-3C238.5,39.8,239.8,38.4,241.5,38.4z M234.7,174.8c1.7,0,3,1.4,3,3s-1.4,3-3,3c-1.7,0-3-1.4-3-3
		S233.1,174.8,234.7,174.8z M234.5,229.2c2.7,0,4.9,2.2,4.9,4.9s-2.2,4.9-4.9,4.9s-4.9-2.2-4.9-4.9S231.8,229.2,234.5,229.2z
		 M210.7,125.7c5.1,0,9.2,4.1,9.2,9.2s-4.1,9.2-9.2,9.2s-9.2-4.1-9.2-9.2S205.6,125.7,210.7,125.7z M207.9,415c0,1.7-1.4,3-3,3
		c-1.7,0-3-1.4-3-3s1.4-3,3-3C206.6,411.9,207.9,413.3,207.9,415z M194.2,16.2c1.7,0,3,1.4,3,3c0,1.7-1.4,3-3,3c-1.7,0-3-1.4-3-3
		C191.2,17.5,192.6,16.2,194.2,16.2z M155.2,1.9c1.7,0,3,1.4,3,3c0,1.7-1.4,3-3,3c-1.7,0-3-1.4-3-3C152.1,3.3,153.5,1.9,155.2,1.9z
		 M140.2,134.2c1.7,0,3,1.4,3,3c0,1.7-1.4,3.1-3,3.1c-1.7,0-3-1.4-3-3.1C137.2,135.6,138.5,134.2,140.2,134.2z M152.1,190.6
		c8.5,0,15.5,6.9,15.5,15.5s-6.9,15.5-15.5,15.5c-8.5,0-15.5-6.9-15.5-15.5S143.6,190.6,152.1,190.6z M135.1,288.9l4.6-1.6
		c0.5-0.2,0.8-0.5,1-1l1.6-4.6c0.2-0.5,0.5-0.8,1-1c0.8-0.3,1.7,0.1,2,1l1.6,4.6c0.2,0.5,0.5,0.8,1,1l4.6,1.6c0.5,0.2,0.8,0.5,1,1
		c0.3,0.8-0.1,1.7-1,2l-4.6,1.6c-0.5,0.2-0.8,0.5-1,1l-1.6,4.6c-0.2,0.5-0.5,0.8-1,1c-0.8,0.3-1.7-0.1-2-1l-1.6-4.6
		c-0.2-0.5-0.5-0.8-1-1l-4.6-1.6c-0.5-0.2-0.8-0.5-1-1C133.8,290.1,134.3,289.2,135.1,288.9z M146,370.1c0,1.7-1.4,3-3,3
		c-1.7,0-3-1.4-3-3s1.4-3,3-3C144.6,367.1,146,368.4,146,370.1z M129.6,408.8c1.7,0,3,1.4,3,3s-1.4,3-3,3c-1.7,0-3-1.4-3-3
		S127.9,408.8,129.6,408.8z M143.5,507.2c9.9,0,17.9,8,17.9,17.9s-8,17.9-17.9,17.9c-9.9,0-17.9-8-17.9-17.9
		S133.6,507.2,143.5,507.2z M103.7,595.3c0,1.7-1.4,3-3,3c-1.7,0-3-1.4-3-3s1.4-3,3-3C102.4,592.2,103.7,593.6,103.7,595.3z
		 M97,323.6c2.6,0,4.7,2.1,4.7,4.7s-2.1,4.7-4.7,4.7s-4.6-2.1-4.6-4.7S94.4,323.6,97,323.6z M90.4,381.1c5.1,0,9.2,4.1,9.2,9.2
		s-4.1,9.2-9.2,9.2s-9.2-4.1-9.2-9.2S85.3,381.1,90.4,381.1z M90.4,476c5.1,0,9.2,4.1,9.2,9.2s-4.1,9.2-9.2,9.2s-9.2-4.1-9.2-9.2
		S85.3,476,90.4,476z M83.9,715.7c5.1,0,9.2,4.1,9.2,9.2s-4.1,9.2-9.2,9.2s-9.2-4.1-9.2-9.2S78.8,715.7,83.9,715.7z M63.8,223.7
		c0,1.7-1.4,3-3,3c-1.7,0-3-1.4-3-3s1.4-3,3-3C62.5,220.7,63.8,222.1,63.8,223.7z M57.7,546.2c0,1.7-1.4,3-3,3c-1.7,0-3-1.4-3-3
		s1.4-3,3-3C56.4,543.2,57.7,544.6,57.7,546.2z M57.7,127.1c1.7,0,3,1.4,3,3c0,1.7-1.4,3-3,3c-1.7,0-3-1.4-3-3
		C54.7,128.4,56,127.1,57.7,127.1z M51.1,414c1.7,0,3,1.4,3,3s-1.4,3-3,3c-1.7,0-3-1.4-3-3S49.4,414,51.1,414z M14.8,110.7
		c0-1.7,1.4-3,3-3c1.7,0,3,1.4,3,3c0,1.7-1.4,3-3,3C16.1,113.8,14.8,112.4,14.8,110.7z M17.2,556c0-2.6,2.1-4.7,4.7-4.7
		s4.6,2.1,4.6,4.7s-2.1,4.7-4.6,4.7S17.2,558.6,17.2,556z M18.9,720.2c0-1.7,1.4-3.1,3-3.1c1.7,0,3,1.4,3,3.1s-1.4,3.1-3,3.1
		C20.2,723.3,18.9,721.9,18.9,720.2z M24.2,861.4c-1.7,0-3-1.4-3-3.1s1.4-3.1,3-3.1c1.7,0,3,1.4,3,3.1S25.9,861.4,24.2,861.4z
		 M25,817.8c-1.7,0-3-1.4-3-3.1s1.4-3.1,3-3.1c1.7,0,3,1.4,3,3.1S26.6,817.8,25,817.8z M28.1,446.1c-1.7,0-3-1.4-3-3s1.4-3,3-3
		c1.7,0,3,1.4,3,3S29.8,446.1,28.1,446.1z M24.6,244.4c0-5.1,4.1-9.2,9.2-9.2s9.2,4.1,9.2,9.2s-4.1,9.2-9.2,9.2
		S24.6,249.5,24.6,244.4z M39.5,674.7c-1.7,0-3-1.4-3-3.1s1.4-3.1,3-3.1c1.7,0,3,1.4,3,3.1S41.1,674.7,39.5,674.7z M39.5,307.5
		c-1.7,0-3-1.4-3-3s1.4-3,3-3c1.7,0,3,1.4,3,3S41.1,307.5,39.5,307.5z M58.5,904.6l-3.9,1.3c-0.4,0.1-0.7,0.4-0.8,0.8l-1.3,3.9
		c-0.1,0.4-0.4,0.7-0.8,0.9c-0.7,0.2-1.5-0.1-1.7-0.8l-1.3-3.9c-0.1-0.4-0.4-0.7-0.8-0.8l-3.9-1.3c-0.4-0.1-0.7-0.4-0.8-0.8
		c-0.3-0.7,0.1-1.5,0.8-1.7l3.9-1.3c0.4-0.1,0.7-0.4,0.8-0.8l1.3-3.9c0.1-0.4,0.4-0.7,0.8-0.8c0.7-0.3,1.5,0.1,1.7,0.8l1.3,3.9
		c0.1,0.4,0.4,0.7,0.8,0.8l3.9,1.3c0.4,0.1,0.7,0.4,0.8,0.8C59.5,903.6,59.2,904.4,58.5,904.6z M57.1,616.6c0-1.7,1.4-3,3-3
		c1.7,0,3,1.4,3,3s-1.4,3-3,3C58.4,619.6,57.1,618.2,57.1,616.6z M79.2,880.6c-9.9,0-17.9-8-17.9-17.9s8-17.9,17.9-17.9
		c9.9,0,17.9,8,17.9,17.9S89.1,880.6,79.2,880.6z M104.4,798.1l-3.3,1.1c-0.3,0.1-0.6,0.4-0.7,0.7l-1.1,3.3
		c-0.1,0.3-0.4,0.6-0.7,0.7c-0.6,0.2-1.2-0.1-1.4-0.7l-1.1-3.3c-0.1-0.3-0.4-0.6-0.7-0.7l-3.3-1.1c-0.3-0.1-0.6-0.4-0.7-0.7
		c-0.2-0.6,0.1-1.2,0.7-1.4l3.3-1.1c0.3-0.1,0.6-0.4,0.7-0.7l1.1-3.3c0.1-0.3,0.4-0.6,0.7-0.7c0.6-0.2,1.2,0.1,1.4,0.7l1.1,3.3
		c0.1,0.3,0.4,0.6,0.7,0.7l3.3,1.1c0.3,0.1,0.6,0.4,0.7,0.7C105.3,797.3,105,797.9,104.4,798.1z M109.7,704.3
		c-2.1,0-3.9-1.7-3.9-3.8s1.7-3.8,3.9-3.8s3.8,1.7,3.8,3.8S111.8,704.3,109.7,704.3z M107,66.4c0-5.1,4.1-9.2,9.2-9.2
		s9.2,4.1,9.2,9.2s-4.1,9.2-9.2,9.2S107,71.5,107,66.4z M122.5,650c-2,0-3.6-1.6-3.6-3.6s1.6-3.6,3.6-3.6c2,0,3.6,1.6,3.6,3.6
		S124.5,650,122.5,650z M129.6,782.2c-1.7,0-3-1.4-3-3.1s1.4-3.1,3-3.1c1.7,0,3,1.4,3,3.1S131.3,782.2,129.6,782.2z M136.9,700.6
		c-1.7,0-3-1.4-3-3.1s1.4-3.1,3-3.1c1.7,0,3,1.4,3,3.1S138.6,700.6,136.9,700.6z M143,740.4c-1.7,0-3-1.4-3-3.1s1.4-3.1,3-3.1
		c1.7,0,3,1.4,3,3.1S144.6,740.4,143,740.4z M152,876.3c-2,0-3.6-1.6-3.6-3.6s1.6-3.6,3.6-3.6c2,0,3.6,1.6,3.6,3.6
		S154,876.3,152,876.3z M160,912c-1.7,0-3-1.4-3-3.1s1.4-3.1,3-3.1c1.7,0,3,1.4,3,3.1S161.7,912,160,912z M164.7,584.4
		c-5.1,0-9.2-4.1-9.2-9.2s4.1-9.2,9.2-9.2s9.2,4.1,9.2,9.2S169.8,584.4,164.7,584.4z M167,401.2c-4.2,0-7.7-3.4-7.7-7.7
		s3.4-7.7,7.7-7.7s7.6,3.4,7.6,7.7S171.2,401.2,167,401.2z M185.8,33.4l-3.3,1.1c-0.3,0.1-0.6,0.4-0.7,0.7l-1.1,3.3
		c-0.1,0.3-0.4,0.6-0.7,0.7c-0.6,0.2-1.2-0.1-1.4-0.7l-1.1-3.3c-0.1-0.3-0.4-0.6-0.7-0.7l-3.3-1.1c-0.3-0.1-0.6-0.4-0.7-0.7
		c-0.2-0.6,0.1-1.2,0.7-1.4l3.3-1.1c0.3-0.1,0.6-0.4,0.7-0.7l1.1-3.3c0.1-0.3,0.4-0.6,0.7-0.7c0.6-0.2,1.2,0.1,1.4,0.7l1.1,3.3
		c0.1,0.3,0.4,0.6,0.7,0.7l3.3,1.1c0.3,0.1,0.6,0.4,0.7,0.7C186.7,32.6,186.4,33.2,185.8,33.4z M187.7,528c0-1.7,1.4-3,3-3
		c1.7,0,3,1.4,3,3s-1.4,3-3,3C189.1,531,187.7,529.6,187.7,528z M191.1,635.6c0-5.1,4.1-9.2,9.2-9.2s9.2,4.1,9.2,9.2
		s-4.1,9.2-9.2,9.2S191.1,640.7,191.1,635.6z M207.9,782.2c0,1.7-1.4,3.1-3,3.1c-1.7,0-3-1.4-3-3.1s1.4-3.1,3-3.1
		C206.6,779.2,207.9,780.5,207.9,782.2z M205.2,917c-4.6,0-8.4-3.8-8.4-8.4s3.8-8.4,8.4-8.4c4.6,0,8.4,3.8,8.4,8.4
		S209.8,917,205.2,917z M209.5,834.8c-5.1,0-9.2-4.1-9.2-9.2s4.1-9.2,9.2-9.2s9.2,4.1,9.2,9.2S214.6,834.8,209.5,834.8z
		 M227.5,483.8l-3.9,1.3c-0.4,0.1-0.7,0.4-0.8,0.8l-1.4,3.9c-0.1,0.4-0.4,0.7-0.8,0.8c-0.7,0.2-1.5-0.1-1.7-0.8l-1.4-3.9
		c-0.1-0.4-0.4-0.7-0.8-0.8l-3.9-1.3c-0.4-0.1-0.7-0.4-0.8-0.8c-0.3-0.7,0.1-1.5,0.8-1.7l3.9-1.3c0.4-0.1,0.7-0.4,0.8-0.8l1.4-3.9
		c0.1-0.4,0.4-0.7,0.8-0.8c0.7-0.3,1.5,0.1,1.7,0.8l1.4,3.9c0.1,0.4,0.4,0.7,0.8,0.8l3.9,1.3c0.4,0.1,0.7,0.4,0.8,0.8
		C228.5,482.8,228.2,483.5,227.5,483.8z M226.8,358.3c-9.9,0-17.9-8-17.9-17.9s8-17.9,17.9-17.9c9.9,0,17.9,8,17.9,17.9
		S236.7,358.3,226.8,358.3z M246.6,282.7c0-1.7,1.4-3,3-3c1.7,0,3,1.4,3,3s-1.4,3-3,3C248,285.7,246.6,284.4,246.6,282.7z
		 M247.9,681.3c0-1.7,1.4-3.1,3-3.1c1.7,0,3,1.4,3,3.1s-1.4,3.1-3,3.1C249.3,684.3,247.9,682.9,247.9,681.3z M257.4,750.4
		c2.6,0,4.7,2.1,4.7,4.7s-2.1,4.7-4.7,4.7s-4.6-2.1-4.6-4.7S254.9,750.4,257.4,750.4z M268.7,529.9c-0.1,0.3-0.4,0.6-0.7,0.7
		c-0.6,0.2-1.2-0.1-1.4-0.7l-1.1-3.3c-0.1-0.3-0.4-0.6-0.7-0.7l-3.3-1.1c-0.3-0.1-0.6-0.4-0.7-0.7c-0.2-0.6,0.1-1.2,0.7-1.4l3.3-1.1
		c0.3-0.1,0.6-0.4,0.7-0.7l1.1-3.3c0.1-0.3,0.4-0.6,0.7-0.7c0.6-0.2,1.2,0.1,1.4,0.7l1.1,3.3c0.1,0.3,0.4,0.6,0.7,0.7l3.3,1.1
		c0.3,0.1,0.6,0.4,0.7,0.7c0.2,0.6-0.1,1.2-0.7,1.4l-3.3,1.1c-0.3,0.1-0.6,0.4-0.7,0.7L268.7,529.9z M269.1,645.9c0,1.7-1.4,3-3,3
		s-3-1.4-3-3s1.4-3,3-3S269.1,644.3,269.1,645.9z M258.1,220.5c-1.7,0-3-1.4-3-3s1.4-3,3-3c1.7,0,3,1.4,3,3S259.8,220.5,258.1,220.5
		z M262.1,886.7c-5.1,0-9.2-4.1-9.2-9.2s4.1-9.2,9.2-9.2s9.2,4.1,9.2,9.2S267.2,886.7,262.1,886.7z M275.5,842.2c-1.7,0-3-1.4-3-3.1
		s1.4-3.1,3-3.1s3,1.4,3,3.1S277.2,842.2,275.5,842.2z M275.5,475c-1.7,0-3-1.4-3-3s1.4-3,3-3s3,1.4,3,3S277.2,475,275.5,475z
		 M267,202.6c-9.9,0-17.9-8-17.9-17.9s8-17.9,17.9-17.9c9.9,0,17.9,8,17.9,17.9S276.9,202.6,267,202.6z M298.8,927.7l-3.3,1.1
		c-0.3,0.1-0.6,0.4-0.7,0.7l-1.1,3.3c-0.1,0.3-0.4,0.6-0.7,0.7c-0.6,0.2-1.2-0.1-1.4-0.7l-1.1-3.3c-0.1-0.3-0.4-0.6-0.7-0.7
		l-3.3-1.1c-0.3-0.1-0.6-0.4-0.7-0.7c-0.2-0.6,0.1-1.2,0.7-1.4l3.3-1.1c0.3-0.1,0.6-0.4,0.7-0.7l1.1-3.3c0.1-0.3,0.4-0.6,0.7-0.7
		c0.6-0.2,1.2,0.1,1.4,0.7l1.1,3.3c0.1,0.3,0.4,0.6,0.7,0.7l3.3,1.1c0.3,0.1,0.6,0.4,0.7,0.7C299.6,926.8,299.3,927.5,298.8,927.7z
		 M308,817.8c-1.7,0-3-1.4-3-3.1s1.4-3.1,3-3.1s3,1.4,3,3.1S309.7,817.8,308,817.8z M318.7,610.7l-5.3,1.8c-0.5,0.2-0.9,0.6-1.1,1.1
		l-1.8,5.3c-0.2,0.5-0.6,1-1.1,1.1c-0.9,0.3-2-0.2-2.3-1.1l-1.8-5.3c-0.2-0.5-0.6-0.9-1.1-1.1l-5.3-1.8c-0.5-0.2-1-0.6-1.1-1.1
		c-0.3-0.9,0.2-2,1.1-2.3l5.3-1.8c0.5-0.2,0.9-0.6,1.1-1.1l1.8-5.3c0.2-0.5,0.6-1,1.1-1.1c0.9-0.3,2,0.2,2.3,1.1l1.8,5.3
		c0.2,0.5,0.6,0.9,1.1,1.1l5.3,1.8c0.5,0.2,1,0.6,1.1,1.1C320.2,609.4,319.7,610.4,318.7,610.7z M308,418.1
		c-8.5,0-15.5-6.9-15.5-15.5s6.9-15.5,15.5-15.5s15.5,6.9,15.5,15.5S316.5,418.1,308,418.1z M321.6,348.4c-5.1,0-9.2-4.1-9.2-9.2
		s4.1-9.2,9.2-9.2s9.2,4.1,9.2,9.2S326.7,348.4,321.6,348.4z M329,738.2c0-4.6,3.8-8.4,8.4-8.4s8.4,3.8,8.4,8.4s-3.8,8.4-8.4,8.4
		S329,742.8,329,738.2z M352.8,914.2c-1.7,0-3-1.4-3-3.1s1.4-3.1,3-3.1s3,1.4,3,3.1S354.5,914.2,352.8,914.2z M355.2,809.7l-3.9,1.3
		c-0.4,0.1-0.7,0.4-0.8,0.8l-1.4,3.9c-0.1,0.4-0.4,0.7-0.8,0.8c-0.7,0.3-1.5-0.1-1.7-0.8l-1.3-3.9c-0.1-0.4-0.4-0.7-0.8-0.8
		l-3.9-1.3c-0.4-0.1-0.7-0.4-0.8-0.8c-0.2-0.7,0.1-1.5,0.8-1.7l3.9-1.3c0.4-0.1,0.7-0.4,0.8-0.8l1.3-3.9c0.1-0.4,0.4-0.7,0.8-0.8
		c0.7-0.2,1.5,0.1,1.7,0.8l1.4,3.9c0.1,0.4,0.4,0.7,0.8,0.8l3.9,1.3c0.4,0.1,0.7,0.4,0.8,0.8C356.2,808.7,355.9,809.5,355.2,809.7z
		 M347.8,656.5c-4.9,0-8.9-4-8.9-8.9c0-4.9,4-8.9,8.9-8.9s8.9,4,8.9,8.9C356.6,652.5,352.7,656.5,347.8,656.5z M364.5,696.5
		c-3.3,0-5.9-2.6-5.9-5.9s2.6-5.9,5.9-5.9s5.9,2.6,5.9,5.9S367.8,696.5,364.5,696.5z M362,492.4c-5.1,0-9.2-4.1-9.2-9.2
		s4.1-9.2,9.2-9.2s9.2,4.1,9.2,9.2S367.1,492.4,362,492.4z M371,237.5c-2,0-3.6-1.6-3.6-3.6s1.6-3.6,3.6-3.6s3.6,1.6,3.6,3.6
		S372.9,237.5,371,237.5z M381.9,527.8c-1.7,0-3-1.4-3-3s1.4-3,3-3s3,1.4,3,3S383.6,527.8,381.9,527.8z M399.8,879.7l-3.3,1.1
		c-0.3,0.1-0.6,0.4-0.7,0.7l-1.1,3.3c-0.1,0.3-0.4,0.6-0.7,0.7c-0.6,0.2-1.2-0.1-1.4-0.7l-1.1-3.3c-0.1-0.3-0.4-0.6-0.7-0.7
		l-3.3-1.1c-0.3-0.1-0.6-0.4-0.7-0.7c-0.2-0.6,0.1-1.2,0.7-1.4l3.3-1.1c0.3-0.1,0.6-0.4,0.7-0.7l1.1-3.3c0.1-0.3,0.4-0.6,0.7-0.7
		c0.6-0.2,1.2,0.1,1.4,0.7l1.1,3.3c0.1,0.3,0.4,0.6,0.7,0.7l3.3,1.1c0.3,0.1,0.6,0.4,0.7,0.7C400.7,878.8,400.4,879.5,399.8,879.7z
		 M412.6,782.2c-1.7,0-3-1.4-3-3.1s1.4-3.1,3-3.1s3,1.4,3,3.1S414.3,782.2,412.6,782.2z M408.3,641.8c-8.5,0-15.5-6.9-15.5-15.5
		s6.9-15.5,15.5-15.5s15.5,6.9,15.5,15.5S416.9,641.8,408.3,641.8z M409.6,598c0-1.7,1.4-3,3-3s3,1.4,3,3s-1.4,3-3,3
		S409.6,599.7,409.6,598z M426,740.4c-1.7,0-3-1.4-3-3.1s1.4-3.1,3-3.1s3,1.4,3,3.1S427.7,740.4,426,740.4z M411.2,568.1
		c-9.9,0-17.9-8-17.9-17.9s8-17.9,17.9-17.9s17.9,8,17.9,17.9S421.1,568.1,411.2,568.1z M426.1,84.7c-1.7,0-3-1.4-3-3
		c0-1.7,1.4-3,3-3s3,1.4,3,3C429.1,83.3,427.8,84.7,426.1,84.7z M436.6,238c0-4.9,4-8.9,8.9-8.9s8.9,4,8.9,8.9s-4,8.9-8.9,8.9
		S436.6,242.9,436.6,238z M446.7,473.3c-1.7,0-3-1.4-3-3s1.4-3,3-3s3,1.4,3,3S448.3,473.3,446.7,473.3z M447.2,398
		c0-5.1,4.1-9.2,9.2-9.2s9.2,4.1,9.2,9.2s-4.1,9.2-9.2,9.2S447.2,403.1,447.2,398z M456.4,565.6c0-5.1,4.1-9.2,9.2-9.2
		s9.2,4.1,9.2,9.2s-4.1,9.2-9.2,9.2S456.4,570.7,456.4,565.6z M470.3,717.6c-5.1,0-9.2-4.1-9.2-9.2s4.1-9.2,9.2-9.2s9.2,4.1,9.2,9.2
		S475.4,717.6,470.3,717.6z M480.4,133.9c0-1.7,1.4-3,3-3s3,1.4,3,3c0,1.7-1.4,3-3,3S480.4,135.6,480.4,133.9z M484.3,461
		c-0.3-0.9,0.2-2,1.1-2.3l5.3-1.8c0.5-0.2,0.9-0.6,1.1-1.1l1.8-5.3c0.2-0.5,0.6-1,1.1-1.1c0.9-0.3,2,0.2,2.3,1.1l1.8,5.3
		c0.2,0.5,0.6,0.9,1.1,1.1l5.3,1.8c0.5,0.2,0.9,0.6,1.1,1.1c0.3,0.9-0.2,2-1.1,2.3l-5.3,1.8c-0.5,0.2-0.9,0.6-1.1,1.1l-1.8,5.3
		c-0.2,0.5-0.6,1-1.1,1.1c-0.9,0.3-2-0.2-2.3-1.2l-1.8-5.3c-0.2-0.5-0.6-0.9-1.1-1.1l-5.3-1.8C484.9,461.9,484.5,461.5,484.3,461z
		 M484.9,782.2c0-1.7,1.4-3.1,3-3.1s3,1.4,3,3.1s-1.4,3.1-3,3.1S484.9,783.9,484.9,782.2z"/>
	
		<radialGradient id="SVGID_1_" cx="-345.5582" cy="261.8285" r="627.8418" gradientTransform="matrix(0.5203 0.4378 0.6439 -0.7651 280.7766 795.6297)" gradientUnits="userSpaceOnUse">
		<stop  offset="0" style="stop-color:#15004D"/>
		<stop  offset="0.36" style="stop-color:#15004D"/>
		<stop  offset="0.76" style="stop-color:#15004D;stop-opacity:0.33"/>
		<stop  offset="1" style="stop-color:#15004D;stop-opacity:0"/>
	</radialGradient>
	<path class="st1" d="M488.8,825.5c0-5.1,4.1-9.2,9.2-9.2c1,0,1.9,0.2,2.8,0.4c28.1-24.7,55.2-51.8,81.1-81.1v-75.6
		c-4.3-0.8-7.6-4.5-7.6-9.1s3.3-8.3,7.6-9.1V0H131.3C85.9,29.9,41.7,65.7,0,107v828.1h325.8c55.7-27.5,110.9-63.7,163.1-108
		C488.9,826.6,488.8,826.1,488.8,825.5z M530.8,764.4c-9.9,0-17.9-8-17.9-17.9s8-17.9,17.9-17.9s17.9,8,17.9,17.9
		S540.7,764.4,530.8,764.4z M535.9,427.7c-2,0-3.6-1.6-3.6-3.6s1.6-3.6,3.6-3.6s3.6,1.6,3.6,3.6S537.9,427.7,535.9,427.7z
		 M545.8,521.4c0,4-3.2,7.2-7.2,7.2s-7.2-3.2-7.2-7.2s3.2-7.2,7.2-7.2S545.8,517.4,545.8,521.4z M534,317.1c-1.7,0-3-1.4-3-3
		s1.4-3,3-3s3,1.4,3,3S535.7,317.1,534,317.1z M534,678.2c1.7,0,3,1.4,3,3.1s-1.4,3.1-3,3.1s-3-1.4-3-3.1S532.3,678.2,534,678.2z
		 M549.1,649c-1.7,0-3-1.4-3-3s1.4-3,3-3s3,1.4,3,3S550.7,649,549.1,649z M567.3,198.5c1.7,0,3,1.4,3,3s-1.4,3-3,3s-3-1.4-3-3
		S565.6,198.5,567.3,198.5z M561.6,471.9c0,1.7-1.4,3-3,3s-3-1.4-3-3s1.4-3,3-3S561.6,470.3,561.6,471.9z M555.9,71.8
		c1.7,0,3,1.4,3,3c0,1.7-1.4,3-3,3s-3-1.4-3-3C552.8,73.2,554.2,71.8,555.9,71.8z M558.1,391.1c0,5.1-4.1,9.2-9.2,9.2
		s-9.2-4.1-9.2-9.2s4.1-9.2,9.2-9.2S558.1,386,558.1,391.1z M527.3,111.1c8.5,0,15.5,6.9,15.5,15.5c0,8.5-6.9,15.5-15.5,15.5
		s-15.5-6.9-15.5-15.5C511.9,118,518.8,111.1,527.3,111.1z M520.9,166.3c6.2,0,11.2,5,11.2,11.2s-5,11.2-11.2,11.2
		s-11.2-5-11.2-11.2S514.8,166.3,520.9,166.3z M519.6,249.6c-5.1,0-9.2-4.1-9.2-9.2s4.1-9.2,9.2-9.2s9.2,4.1,9.2,9.2
		S524.7,249.6,519.6,249.6z M522.6,544.1c0,2.6-2.1,4.7-4.7,4.7s-4.7-2.1-4.7-4.7s2.1-4.7,4.7-4.7S522.6,541.5,522.6,544.1z
		 M518.1,588.4c6.2,0,11.2,5,11.2,11.2s-5,11.2-11.2,11.2s-11.2-5-11.2-11.2S511.9,588.4,518.1,588.4z M491,415c0,1.7-1.4,3-3,3
		s-3-1.4-3-3s1.4-3,3-3S491,413.3,491,415z M481,71.8c4.6,0,8.4,3.8,8.4,8.4c0,4.6-3.8,8.4-8.4,8.4s-8.4-3.8-8.4-8.4
		C472.6,75.5,476.4,71.8,481,71.8z M462.4,190.8l3.9-1.3c0.4-0.1,0.7-0.4,0.8-0.8l1.3-3.9c0.1-0.4,0.4-0.7,0.8-0.8
		c0.7-0.3,1.5,0.1,1.7,0.8l1.3,3.9c0.1,0.4,0.4,0.7,0.8,0.8l3.9,1.3c0.4,0.1,0.7,0.4,0.8,0.8c0.2,0.7-0.1,1.5-0.8,1.7l-3.9,1.4
		c-0.4,0.1-0.7,0.4-0.8,0.8l-1.3,3.9c-0.1,0.4-0.4,0.7-0.8,0.8c-0.7,0.2-1.5-0.1-1.7-0.8l-1.3-3.9c-0.1-0.4-0.4-0.7-0.8-0.8
		l-3.9-1.4c-0.4-0.1-0.7-0.4-0.8-0.8C461.3,191.8,461.7,191.1,462.4,190.8z M476.8,528c0,1.7-1.4,3-3,3s-3-1.4-3-3s1.4-3,3-3
		S476.8,526.3,476.8,528z M468.7,345.7c0,1.7-1.4,3-3,3s-3-1.4-3-3s1.4-3,3-3S468.7,344,468.7,345.7z M418.3,3.3c1.7,0,3,1.4,3,3
		c0,1.7-1.4,3-3,3s-3-1.4-3-3C415.3,4.6,416.7,3.3,418.3,3.3z M415.7,411.9c0,1.7-1.4,3-3,3s-3-1.4-3-3s1.4-3,3-3
		S415.7,410.2,415.7,411.9z M405.9,233.6c1.7,0,3,1.4,3,3s-1.4,3-3,3s-3-1.4-3-3S404.2,233.6,405.9,233.6z M401.4,344.1
		c1-0.3,2.1,0.2,2.4,1.2l1.9,5.5c0.2,0.6,0.6,1,1.2,1.2l5.5,1.9c0.6,0.2,1,0.6,1.2,1.2c0.3,1-0.2,2.1-1.2,2.4l-5.5,1.9
		c-0.6,0.2-1,0.6-1.2,1.2l-1.9,5.5c-0.2,0.6-0.6,1-1.2,1.2c-1,0.3-2.1-0.2-2.4-1.2l-1.9-5.5c-0.2-0.5-0.6-1-1.2-1.2l-5.5-1.9
		c-0.6-0.2-1-0.6-1.2-1.2c-0.3-1,0.2-2.1,1.2-2.4l5.5-1.9c0.5-0.2,1-0.6,1.2-1.2l1.9-5.5C400.4,344.7,400.8,344.3,401.4,344.1z
		 M391.9,186.9c0-1.7,1.4-3,3-3s3,1.4,3,3s-1.4,3-3,3S391.9,188.6,391.9,186.9z M390.7,7.6c5.1,0,9.2,4.1,9.2,9.2s-4.1,9.2-9.2,9.2
		s-9.2-4.1-9.2-9.2S385.6,7.6,390.7,7.6z M359.4,110.1c5.1,0,9.2,4.1,9.2,9.2s-4.1,9.2-9.2,9.2s-9.2-4.1-9.2-9.2
		S354.3,110.1,359.4,110.1z M362,300.8c0,1.7-1.4,3-3,3s-3-1.4-3-3s1.4-3,3-3S362,299.2,362,300.8z M352.8,522.1c0,1.7-1.4,3-3,3
		s-3-1.4-3-3s1.4-3,3-3S352.8,520.4,352.8,522.1z M348.6,72.8c0,1.7-1.4,3-3,3s-3-1.4-3-3c0-1.7,1.4-3,3-3S348.6,71.2,348.6,72.8z
		 M337.5,144c0-2.2,1.8-4,4-4s4,1.8,4,4s-1.8,4-4,4S337.5,146.2,337.5,144z M344.5,688.3c5.1,0,9.2,4.1,9.2,9.2s-4.1,9.2-9.2,9.2
		s-9.2-4.1-9.2-9.2S339.4,688.3,344.5,688.3z M335.1,34c5.1,0,9.2,4.1,9.2,9.2s-4.1,9.2-9.2,9.2s-9.2-4.1-9.2-9.2S330,34,335.1,34z
		 M311.1,116.2c1.7,0,3,1.4,3,3c0,1.7-1.4,3-3,3s-3-1.4-3-3C308,117.6,309.4,116.2,311.1,116.2z M241.5,38.4c1.7,0,3,1.4,3,3
		c0,1.7-1.4,3-3,3c-1.7,0-3-1.4-3-3C238.5,39.8,239.8,38.4,241.5,38.4z M234.7,174.8c1.7,0,3,1.4,3,3s-1.4,3-3,3c-1.7,0-3-1.4-3-3
		S233.1,174.8,234.7,174.8z M234.5,229.2c2.7,0,4.9,2.2,4.9,4.9s-2.2,4.9-4.9,4.9s-4.9-2.2-4.9-4.9S231.8,229.2,234.5,229.2z
		 M210.7,125.7c5.1,0,9.2,4.1,9.2,9.2s-4.1,9.2-9.2,9.2s-9.2-4.1-9.2-9.2S205.6,125.7,210.7,125.7z M207.9,415c0,1.7-1.4,3-3,3
		c-1.7,0-3-1.4-3-3s1.4-3,3-3C206.6,411.9,207.9,413.3,207.9,415z M194.2,16.2c1.7,0,3,1.4,3,3c0,1.7-1.4,3-3,3c-1.7,0-3-1.4-3-3
		C191.2,17.5,192.6,16.2,194.2,16.2z M155.2,1.9c1.7,0,3,1.4,3,3c0,1.7-1.4,3-3,3c-1.7,0-3-1.4-3-3C152.1,3.3,153.5,1.9,155.2,1.9z
		 M140.2,134.2c1.7,0,3,1.4,3,3c0,1.7-1.4,3.1-3,3.1c-1.7,0-3-1.4-3-3.1C137.2,135.6,138.5,134.2,140.2,134.2z M152.1,190.6
		c8.5,0,15.5,6.9,15.5,15.5s-6.9,15.5-15.5,15.5c-8.5,0-15.5-6.9-15.5-15.5S143.6,190.6,152.1,190.6z M135.1,288.9l4.6-1.6
		c0.5-0.2,0.8-0.5,1-1l1.6-4.6c0.2-0.5,0.5-0.8,1-1c0.8-0.3,1.7,0.1,2,1l1.6,4.6c0.2,0.5,0.5,0.8,1,1l4.6,1.6c0.5,0.2,0.8,0.5,1,1
		c0.3,0.8-0.1,1.7-1,2l-4.6,1.6c-0.5,0.2-0.8,0.5-1,1l-1.6,4.6c-0.2,0.5-0.5,0.8-1,1c-0.8,0.3-1.7-0.1-2-1l-1.6-4.6
		c-0.2-0.5-0.5-0.8-1-1l-4.6-1.6c-0.5-0.2-0.8-0.5-1-1C133.8,290.1,134.3,289.2,135.1,288.9z M146,370.1c0,1.7-1.4,3-3,3
		c-1.7,0-3-1.4-3-3s1.4-3,3-3C144.6,367.1,146,368.4,146,370.1z M129.6,408.8c1.7,0,3,1.4,3,3s-1.4,3-3,3c-1.7,0-3-1.4-3-3
		S127.9,408.8,129.6,408.8z M143.5,507.2c9.9,0,17.9,8,17.9,17.9s-8,17.9-17.9,17.9c-9.9,0-17.9-8-17.9-17.9
		S133.6,507.2,143.5,507.2z M103.7,595.3c0,1.7-1.4,3-3,3c-1.7,0-3-1.4-3-3s1.4-3,3-3C102.4,592.2,103.7,593.6,103.7,595.3z
		 M97,323.6c2.6,0,4.7,2.1,4.7,4.7s-2.1,4.7-4.7,4.7s-4.6-2.1-4.6-4.7S94.4,323.6,97,323.6z M90.4,381.1c5.1,0,9.2,4.1,9.2,9.2
		s-4.1,9.2-9.2,9.2s-9.2-4.1-9.2-9.2S85.3,381.1,90.4,381.1z M90.4,476c5.1,0,9.2,4.1,9.2,9.2s-4.1,9.2-9.2,9.2s-9.2-4.1-9.2-9.2
		S85.3,476,90.4,476z M83.9,715.7c5.1,0,9.2,4.1,9.2,9.2s-4.1,9.2-9.2,9.2s-9.2-4.1-9.2-9.2S78.8,715.7,83.9,715.7z M63.8,223.7
		c0,1.7-1.4,3-3,3c-1.7,0-3-1.4-3-3s1.4-3,3-3C62.5,220.7,63.8,222.1,63.8,223.7z M57.7,546.2c0,1.7-1.4,3-3,3c-1.7,0-3-1.4-3-3
		s1.4-3,3-3C56.4,543.2,57.7,544.6,57.7,546.2z M57.7,127.1c1.7,0,3,1.4,3,3c0,1.7-1.4,3-3,3c-1.7,0-3-1.4-3-3
		C54.7,128.4,56,127.1,57.7,127.1z M51.1,414c1.7,0,3,1.4,3,3s-1.4,3-3,3c-1.7,0-3-1.4-3-3S49.4,414,51.1,414z M14.8,110.7
		c0-1.7,1.4-3,3-3c1.7,0,3,1.4,3,3c0,1.7-1.4,3-3,3C16.1,113.8,14.8,112.4,14.8,110.7z M17.2,556c0-2.6,2.1-4.7,4.7-4.7
		s4.6,2.1,4.6,4.7s-2.1,4.7-4.6,4.7S17.2,558.6,17.2,556z M18.9,720.2c0-1.7,1.4-3.1,3-3.1c1.7,0,3,1.4,3,3.1s-1.4,3.1-3,3.1
		C20.2,723.3,18.9,721.9,18.9,720.2z M24.2,861.4c-1.7,0-3-1.4-3-3.1s1.4-3.1,3-3.1c1.7,0,3,1.4,3,3.1S25.9,861.4,24.2,861.4z
		 M25,817.8c-1.7,0-3-1.4-3-3.1s1.4-3.1,3-3.1c1.7,0,3,1.4,3,3.1S26.6,817.8,25,817.8z M28.1,446.1c-1.7,0-3-1.4-3-3s1.4-3,3-3
		c1.7,0,3,1.4,3,3S29.8,446.1,28.1,446.1z M24.6,244.4c0-5.1,4.1-9.2,9.2-9.2s9.2,4.1,9.2,9.2s-4.1,9.2-9.2,9.2
		S24.6,249.5,24.6,244.4z M39.5,674.7c-1.7,0-3-1.4-3-3.1s1.4-3.1,3-3.1c1.7,0,3,1.4,3,3.1S41.1,674.7,39.5,674.7z M39.5,307.5
		c-1.7,0-3-1.4-3-3s1.4-3,3-3c1.7,0,3,1.4,3,3S41.1,307.5,39.5,307.5z M58.5,904.6l-3.9,1.3c-0.4,0.1-0.7,0.4-0.8,0.8l-1.3,3.9
		c-0.1,0.4-0.4,0.7-0.8,0.9c-0.7,0.2-1.5-0.1-1.7-0.8l-1.3-3.9c-0.1-0.4-0.4-0.7-0.8-0.8l-3.9-1.3c-0.4-0.1-0.7-0.4-0.8-0.8
		c-0.3-0.7,0.1-1.5,0.8-1.7l3.9-1.3c0.4-0.1,0.7-0.4,0.8-0.8l1.3-3.9c0.1-0.4,0.4-0.7,0.8-0.8c0.7-0.3,1.5,0.1,1.7,0.8l1.3,3.9
		c0.1,0.4,0.4,0.7,0.8,0.8l3.9,1.3c0.4,0.1,0.7,0.4,0.8,0.8C59.5,903.6,59.2,904.4,58.5,904.6z M57.1,616.6c0-1.7,1.4-3,3-3
		c1.7,0,3,1.4,3,3s-1.4,3-3,3C58.4,619.6,57.1,618.2,57.1,616.6z M79.2,880.6c-9.9,0-17.9-8-17.9-17.9s8-17.9,17.9-17.9
		c9.9,0,17.9,8,17.9,17.9S89.1,880.6,79.2,880.6z M104.4,798.1l-3.3,1.1c-0.3,0.1-0.6,0.4-0.7,0.7l-1.1,3.3
		c-0.1,0.3-0.4,0.6-0.7,0.7c-0.6,0.2-1.2-0.1-1.4-0.7l-1.1-3.3c-0.1-0.3-0.4-0.6-0.7-0.7l-3.3-1.1c-0.3-0.1-0.6-0.4-0.7-0.7
		c-0.2-0.6,0.1-1.2,0.7-1.4l3.3-1.1c0.3-0.1,0.6-0.4,0.7-0.7l1.1-3.3c0.1-0.3,0.4-0.6,0.7-0.7c0.6-0.2,1.2,0.1,1.4,0.7l1.1,3.3
		c0.1,0.3,0.4,0.6,0.7,0.7l3.3,1.1c0.3,0.1,0.6,0.4,0.7,0.7C105.3,797.3,105,797.9,104.4,798.1z M109.7,704.3
		c-2.1,0-3.9-1.7-3.9-3.8s1.7-3.8,3.9-3.8s3.8,1.7,3.8,3.8S111.8,704.3,109.7,704.3z M107,66.4c0-5.1,4.1-9.2,9.2-9.2
		s9.2,4.1,9.2,9.2s-4.1,9.2-9.2,9.2S107,71.5,107,66.4z M122.5,650c-2,0-3.6-1.6-3.6-3.6s1.6-3.6,3.6-3.6c2,0,3.6,1.6,3.6,3.6
		S124.5,650,122.5,650z M129.6,782.2c-1.7,0-3-1.4-3-3.1s1.4-3.1,3-3.1c1.7,0,3,1.4,3,3.1S131.3,782.2,129.6,782.2z M136.9,700.6
		c-1.7,0-3-1.4-3-3.1s1.4-3.1,3-3.1c1.7,0,3,1.4,3,3.1S138.6,700.6,136.9,700.6z M143,740.4c-1.7,0-3-1.4-3-3.1s1.4-3.1,3-3.1
		c1.7,0,3,1.4,3,3.1S144.6,740.4,143,740.4z M152,876.3c-2,0-3.6-1.6-3.6-3.6s1.6-3.6,3.6-3.6c2,0,3.6,1.6,3.6,3.6
		S154,876.3,152,876.3z M160,912c-1.7,0-3-1.4-3-3.1s1.4-3.1,3-3.1c1.7,0,3,1.4,3,3.1S161.7,912,160,912z M164.7,584.4
		c-5.1,0-9.2-4.1-9.2-9.2s4.1-9.2,9.2-9.2s9.2,4.1,9.2,9.2S169.8,584.4,164.7,584.4z M167,401.2c-4.2,0-7.7-3.4-7.7-7.7
		s3.4-7.7,7.7-7.7s7.6,3.4,7.6,7.7S171.2,401.2,167,401.2z M185.8,33.4l-3.3,1.1c-0.3,0.1-0.6,0.4-0.7,0.7l-1.1,3.3
		c-0.1,0.3-0.4,0.6-0.7,0.7c-0.6,0.2-1.2-0.1-1.4-0.7l-1.1-3.3c-0.1-0.3-0.4-0.6-0.7-0.7l-3.3-1.1c-0.3-0.1-0.6-0.4-0.7-0.7
		c-0.2-0.6,0.1-1.2,0.7-1.4l3.3-1.1c0.3-0.1,0.6-0.4,0.7-0.7l1.1-3.3c0.1-0.3,0.4-0.6,0.7-0.7c0.6-0.2,1.2,0.1,1.4,0.7l1.1,3.3
		c0.1,0.3,0.4,0.6,0.7,0.7l3.3,1.1c0.3,0.1,0.6,0.4,0.7,0.7C186.7,32.6,186.4,33.2,185.8,33.4z M187.7,528c0-1.7,1.4-3,3-3
		c1.7,0,3,1.4,3,3s-1.4,3-3,3C189.1,531,187.7,529.6,187.7,528z M191.1,635.6c0-5.1,4.1-9.2,9.2-9.2s9.2,4.1,9.2,9.2
		s-4.1,9.2-9.2,9.2S191.1,640.7,191.1,635.6z M207.9,782.2c0,1.7-1.4,3.1-3,3.1c-1.7,0-3-1.4-3-3.1s1.4-3.1,3-3.1
		C206.6,779.2,207.9,780.5,207.9,782.2z M205.2,917c-4.6,0-8.4-3.8-8.4-8.4s3.8-8.4,8.4-8.4c4.6,0,8.4,3.8,8.4,8.4
		S209.8,917,205.2,917z M209.5,834.8c-5.1,0-9.2-4.1-9.2-9.2s4.1-9.2,9.2-9.2s9.2,4.1,9.2,9.2S214.6,834.8,209.5,834.8z
		 M227.5,483.8l-3.9,1.3c-0.4,0.1-0.7,0.4-0.8,0.8l-1.4,3.9c-0.1,0.4-0.4,0.7-0.8,0.8c-0.7,0.2-1.5-0.1-1.7-0.8l-1.4-3.9
		c-0.1-0.4-0.4-0.7-0.8-0.8l-3.9-1.3c-0.4-0.1-0.7-0.4-0.8-0.8c-0.3-0.7,0.1-1.5,0.8-1.7l3.9-1.3c0.4-0.1,0.7-0.4,0.8-0.8l1.4-3.9
		c0.1-0.4,0.4-0.7,0.8-0.8c0.7-0.3,1.5,0.1,1.7,0.8l1.4,3.9c0.1,0.4,0.4,0.7,0.8,0.8l3.9,1.3c0.4,0.1,0.7,0.4,0.8,0.8
		C228.5,482.8,228.2,483.5,227.5,483.8z M226.8,358.3c-9.9,0-17.9-8-17.9-17.9s8-17.9,17.9-17.9c9.9,0,17.9,8,17.9,17.9
		S236.7,358.3,226.8,358.3z M246.6,282.7c0-1.7,1.4-3,3-3c1.7,0,3,1.4,3,3s-1.4,3-3,3C248,285.7,246.6,284.4,246.6,282.7z
		 M247.9,681.3c0-1.7,1.4-3.1,3-3.1c1.7,0,3,1.4,3,3.1s-1.4,3.1-3,3.1C249.3,684.3,247.9,682.9,247.9,681.3z M257.4,750.4
		c2.6,0,4.7,2.1,4.7,4.7s-2.1,4.7-4.7,4.7s-4.6-2.1-4.6-4.7S254.9,750.4,257.4,750.4z M268.7,529.9c-0.1,0.3-0.4,0.6-0.7,0.7
		c-0.6,0.2-1.2-0.1-1.4-0.7l-1.1-3.3c-0.1-0.3-0.4-0.6-0.7-0.7l-3.3-1.1c-0.3-0.1-0.6-0.4-0.7-0.7c-0.2-0.6,0.1-1.2,0.7-1.4l3.3-1.1
		c0.3-0.1,0.6-0.4,0.7-0.7l1.1-3.3c0.1-0.3,0.4-0.6,0.7-0.7c0.6-0.2,1.2,0.1,1.4,0.7l1.1,3.3c0.1,0.3,0.4,0.6,0.7,0.7l3.3,1.1
		c0.3,0.1,0.6,0.4,0.7,0.7c0.2,0.6-0.1,1.2-0.7,1.4l-3.3,1.1c-0.3,0.1-0.6,0.4-0.7,0.7L268.7,529.9z M269.1,645.9c0,1.7-1.4,3-3,3
		s-3-1.4-3-3s1.4-3,3-3S269.1,644.3,269.1,645.9z M258.1,220.5c-1.7,0-3-1.4-3-3s1.4-3,3-3c1.7,0,3,1.4,3,3S259.8,220.5,258.1,220.5
		z M262.1,886.7c-5.1,0-9.2-4.1-9.2-9.2s4.1-9.2,9.2-9.2s9.2,4.1,9.2,9.2S267.2,886.7,262.1,886.7z M275.5,842.2c-1.7,0-3-1.4-3-3.1
		s1.4-3.1,3-3.1s3,1.4,3,3.1S277.2,842.2,275.5,842.2z M275.5,475c-1.7,0-3-1.4-3-3s1.4-3,3-3s3,1.4,3,3S277.2,475,275.5,475z
		 M267,202.6c-9.9,0-17.9-8-17.9-17.9s8-17.9,17.9-17.9c9.9,0,17.9,8,17.9,17.9S276.9,202.6,267,202.6z M298.8,927.7l-3.3,1.1
		c-0.3,0.1-0.6,0.4-0.7,0.7l-1.1,3.3c-0.1,0.3-0.4,0.6-0.7,0.7c-0.6,0.2-1.2-0.1-1.4-0.7l-1.1-3.3c-0.1-0.3-0.4-0.6-0.7-0.7
		l-3.3-1.1c-0.3-0.1-0.6-0.4-0.7-0.7c-0.2-0.6,0.1-1.2,0.7-1.4l3.3-1.1c0.3-0.1,0.6-0.4,0.7-0.7l1.1-3.3c0.1-0.3,0.4-0.6,0.7-0.7
		c0.6-0.2,1.2,0.1,1.4,0.7l1.1,3.3c0.1,0.3,0.4,0.6,0.7,0.7l3.3,1.1c0.3,0.1,0.6,0.4,0.7,0.7C299.6,926.8,299.3,927.5,298.8,927.7z
		 M308,817.8c-1.7,0-3-1.4-3-3.1s1.4-3.1,3-3.1s3,1.4,3,3.1S309.7,817.8,308,817.8z M318.7,610.7l-5.3,1.8c-0.5,0.2-0.9,0.6-1.1,1.1
		l-1.8,5.3c-0.2,0.5-0.6,1-1.1,1.1c-0.9,0.3-2-0.2-2.3-1.1l-1.8-5.3c-0.2-0.5-0.6-0.9-1.1-1.1l-5.3-1.8c-0.5-0.2-1-0.6-1.1-1.1
		c-0.3-0.9,0.2-2,1.1-2.3l5.3-1.8c0.5-0.2,0.9-0.6,1.1-1.1l1.8-5.3c0.2-0.5,0.6-1,1.1-1.1c0.9-0.3,2,0.2,2.3,1.1l1.8,5.3
		c0.2,0.5,0.6,0.9,1.1,1.1l5.3,1.8c0.5,0.2,1,0.6,1.1,1.1C320.2,609.4,319.7,610.4,318.7,610.7z M308,418.1
		c-8.5,0-15.5-6.9-15.5-15.5s6.9-15.5,15.5-15.5s15.5,6.9,15.5,15.5S316.5,418.1,308,418.1z M321.6,348.4c-5.1,0-9.2-4.1-9.2-9.2
		s4.1-9.2,9.2-9.2s9.2,4.1,9.2,9.2S326.7,348.4,321.6,348.4z M329,738.2c0-4.6,3.8-8.4,8.4-8.4s8.4,3.8,8.4,8.4s-3.8,8.4-8.4,8.4
		S329,742.8,329,738.2z M352.8,914.2c-1.7,0-3-1.4-3-3.1s1.4-3.1,3-3.1s3,1.4,3,3.1S354.5,914.2,352.8,914.2z M355.2,809.7l-3.9,1.3
		c-0.4,0.1-0.7,0.4-0.8,0.8l-1.4,3.9c-0.1,0.4-0.4,0.7-0.8,0.8c-0.7,0.3-1.5-0.1-1.7-0.8l-1.3-3.9c-0.1-0.4-0.4-0.7-0.8-0.8
		l-3.9-1.3c-0.4-0.1-0.7-0.4-0.8-0.8c-0.2-0.7,0.1-1.5,0.8-1.7l3.9-1.3c0.4-0.1,0.7-0.4,0.8-0.8l1.3-3.9c0.1-0.4,0.4-0.7,0.8-0.8
		c0.7-0.2,1.5,0.1,1.7,0.8l1.4,3.9c0.1,0.4,0.4,0.7,0.8,0.8l3.9,1.3c0.4,0.1,0.7,0.4,0.8,0.8C356.2,808.7,355.9,809.5,355.2,809.7z
		 M347.8,656.5c-4.9,0-8.9-4-8.9-8.9c0-4.9,4-8.9,8.9-8.9s8.9,4,8.9,8.9C356.6,652.5,352.7,656.5,347.8,656.5z M364.5,696.5
		c-3.3,0-5.9-2.6-5.9-5.9s2.6-5.9,5.9-5.9s5.9,2.6,5.9,5.9S367.8,696.5,364.5,696.5z M362,492.4c-5.1,0-9.2-4.1-9.2-9.2
		s4.1-9.2,9.2-9.2s9.2,4.1,9.2,9.2S367.1,492.4,362,492.4z M371,237.5c-2,0-3.6-1.6-3.6-3.6s1.6-3.6,3.6-3.6s3.6,1.6,3.6,3.6
		S372.9,237.5,371,237.5z M381.9,527.8c-1.7,0-3-1.4-3-3s1.4-3,3-3s3,1.4,3,3S383.6,527.8,381.9,527.8z M399.8,879.7l-3.3,1.1
		c-0.3,0.1-0.6,0.4-0.7,0.7l-1.1,3.3c-0.1,0.3-0.4,0.6-0.7,0.7c-0.6,0.2-1.2-0.1-1.4-0.7l-1.1-3.3c-0.1-0.3-0.4-0.6-0.7-0.7
		l-3.3-1.1c-0.3-0.1-0.6-0.4-0.7-0.7c-0.2-0.6,0.1-1.2,0.7-1.4l3.3-1.1c0.3-0.1,0.6-0.4,0.7-0.7l1.1-3.3c0.1-0.3,0.4-0.6,0.7-0.7
		c0.6-0.2,1.2,0.1,1.4,0.7l1.1,3.3c0.1,0.3,0.4,0.6,0.7,0.7l3.3,1.1c0.3,0.1,0.6,0.4,0.7,0.7C400.7,878.8,400.4,879.5,399.8,879.7z
		 M412.6,782.2c-1.7,0-3-1.4-3-3.1s1.4-3.1,3-3.1s3,1.4,3,3.1S414.3,782.2,412.6,782.2z M408.3,641.8c-8.5,0-15.5-6.9-15.5-15.5
		s6.9-15.5,15.5-15.5s15.5,6.9,15.5,15.5S416.9,641.8,408.3,641.8z M409.6,598c0-1.7,1.4-3,3-3s3,1.4,3,3s-1.4,3-3,3
		S409.6,599.7,409.6,598z M426,740.4c-1.7,0-3-1.4-3-3.1s1.4-3.1,3-3.1s3,1.4,3,3.1S427.7,740.4,426,740.4z M411.2,568.1
		c-9.9,0-17.9-8-17.9-17.9s8-17.9,17.9-17.9s17.9,8,17.9,17.9S421.1,568.1,411.2,568.1z M426.1,84.7c-1.7,0-3-1.4-3-3
		c0-1.7,1.4-3,3-3s3,1.4,3,3C429.1,83.3,427.8,84.7,426.1,84.7z M436.6,238c0-4.9,4-8.9,8.9-8.9s8.9,4,8.9,8.9s-4,8.9-8.9,8.9
		S436.6,242.9,436.6,238z M446.7,473.3c-1.7,0-3-1.4-3-3s1.4-3,3-3s3,1.4,3,3S448.3,473.3,446.7,473.3z M447.2,398
		c0-5.1,4.1-9.2,9.2-9.2s9.2,4.1,9.2,9.2s-4.1,9.2-9.2,9.2S447.2,403.1,447.2,398z M456.4,565.6c0-5.1,4.1-9.2,9.2-9.2
		s9.2,4.1,9.2,9.2s-4.1,9.2-9.2,9.2S456.4,570.7,456.4,565.6z M470.3,717.6c-5.1,0-9.2-4.1-9.2-9.2s4.1-9.2,9.2-9.2s9.2,4.1,9.2,9.2
		S475.4,717.6,470.3,717.6z M480.4,133.9c0-1.7,1.4-3,3-3s3,1.4,3,3c0,1.7-1.4,3-3,3S480.4,135.6,480.4,133.9z M484.3,461
		c-0.3-0.9,0.2-2,1.1-2.3l5.3-1.8c0.5-0.2,0.9-0.6,1.1-1.1l1.8-5.3c0.2-0.5,0.6-1,1.1-1.1c0.9-0.3,2,0.2,2.3,1.1l1.8,5.3
		c0.2,0.5,0.6,0.9,1.1,1.1l5.3,1.8c0.5,0.2,0.9,0.6,1.1,1.1c0.3,0.9-0.2,2-1.1,2.3l-5.3,1.8c-0.5,0.2-0.9,0.6-1.1,1.1l-1.8,5.3
		c-0.2,0.5-0.6,1-1.1,1.1c-0.9,0.3-2-0.2-2.3-1.2l-1.8-5.3c-0.2-0.5-0.6-0.9-1.1-1.1l-5.3-1.8C484.9,461.9,484.5,461.5,484.3,461z
		 M484.9,782.2c0-1.7,1.4-3.1,3-3.1s3,1.4,3,3.1s-1.4,3.1-3,3.1S484.9,783.9,484.9,782.2z"/>
	<path class="st0" d="M335.1,52.5c5.1,0,9.2-4.1,9.2-9.2s-4.1-9.2-9.2-9.2s-9.2,4.1-9.2,9.2S330,52.5,335.1,52.5z M335.1,38.6
		c2.6,0,4.7,2.1,4.7,4.6s-2.1,4.7-4.7,4.7s-4.7-2.1-4.7-4.7S332.5,38.6,335.1,38.6z"/>
	
		<radialGradient id="SVGID_2_" cx="-345.5582" cy="261.8285" r="627.8418" gradientTransform="matrix(0.5203 0.4378 0.6439 -0.7651 280.7766 795.6297)" gradientUnits="userSpaceOnUse">
		<stop  offset="0" style="stop-color:#15004D"/>
		<stop  offset="0.36" style="stop-color:#15004D"/>
		<stop  offset="0.76" style="stop-color:#15004D;stop-opacity:0.33"/>
		<stop  offset="1" style="stop-color:#15004D;stop-opacity:0"/>
	</radialGradient>
	<path class="st2" d="M335.1,52.5c5.1,0,9.2-4.1,9.2-9.2s-4.1-9.2-9.2-9.2s-9.2,4.1-9.2,9.2S330,52.5,335.1,52.5z M335.1,38.6
		c2.6,0,4.7,2.1,4.7,4.6s-2.1,4.7-4.7,4.7s-4.7-2.1-4.7-4.7S332.5,38.6,335.1,38.6z"/>
	<path class="st3" d="M335.1,52.5c5.1,0,9.2-4.1,9.2-9.2s-4.1-9.2-9.2-9.2s-9.2,4.1-9.2,9.2S330,52.5,335.1,52.5z M335.1,38.6
		c2.6,0,4.7,2.1,4.7,4.6s-2.1,4.7-4.7,4.7s-4.7-2.1-4.7-4.7S332.5,38.6,335.1,38.6z"/>
	<path class="st0" d="M362,474c-5.1,0-9.2,4.1-9.2,9.2s4.1,9.2,9.2,9.2s9.2-4.1,9.2-9.2S367.1,474,362,474z M362,487.9
		c-2.6,0-4.7-2.1-4.7-4.7s2.1-4.7,4.7-4.7s4.7,2.1,4.7,4.7S364.6,487.9,362,487.9z"/>
	
		<radialGradient id="SVGID_3_" cx="-345.5582" cy="261.8285" r="627.8418" gradientTransform="matrix(0.5203 0.4378 0.6439 -0.7651 280.7766 795.6297)" gradientUnits="userSpaceOnUse">
		<stop  offset="0" style="stop-color:#15004D"/>
		<stop  offset="0.36" style="stop-color:#15004D"/>
		<stop  offset="0.76" style="stop-color:#15004D;stop-opacity:0.33"/>
		<stop  offset="1" style="stop-color:#15004D;stop-opacity:0"/>
	</radialGradient>
	<path class="st4" d="M362,474c-5.1,0-9.2,4.1-9.2,9.2s4.1,9.2,9.2,9.2s9.2-4.1,9.2-9.2S367.1,474,362,474z M362,487.9
		c-2.6,0-4.7-2.1-4.7-4.7s2.1-4.7,4.7-4.7s4.7,2.1,4.7,4.7S364.6,487.9,362,487.9z"/>
	<path class="st3" d="M362,474c-5.1,0-9.2,4.1-9.2,9.2s4.1,9.2,9.2,9.2s9.2-4.1,9.2-9.2S367.1,474,362,474z M362,487.9
		c-2.6,0-4.7-2.1-4.7-4.7s2.1-4.7,4.7-4.7s4.7,2.1,4.7,4.7S364.6,487.9,362,487.9z"/>
	<path class="st0" d="M465.7,398c0-5.1-4.1-9.2-9.2-9.2s-9.2,4.1-9.2,9.2s4.1,9.2,9.2,9.2S465.7,403.1,465.7,398z M451.8,398
		c0-2.6,2.1-4.7,4.7-4.7s4.7,2.1,4.7,4.7s-2.1,4.7-4.7,4.7S451.8,400.5,451.8,398z"/>
	
		<radialGradient id="SVGID_4_" cx="-345.5582" cy="261.8285" r="627.8418" gradientTransform="matrix(0.5203 0.4378 0.6439 -0.7651 280.7766 795.6297)" gradientUnits="userSpaceOnUse">
		<stop  offset="0" style="stop-color:#15004D"/>
		<stop  offset="0.36" style="stop-color:#15004D"/>
		<stop  offset="0.76" style="stop-color:#15004D;stop-opacity:0.33"/>
		<stop  offset="1" style="stop-color:#15004D;stop-opacity:0"/>
	</radialGradient>
	<path class="st5" d="M465.7,398c0-5.1-4.1-9.2-9.2-9.2s-9.2,4.1-9.2,9.2s4.1,9.2,9.2,9.2S465.7,403.1,465.7,398z M451.8,398
		c0-2.6,2.1-4.7,4.7-4.7s4.7,2.1,4.7,4.7s-2.1,4.7-4.7,4.7S451.8,400.5,451.8,398z"/>
	<path class="st3" d="M465.7,398c0-5.1-4.1-9.2-9.2-9.2s-9.2,4.1-9.2,9.2s4.1,9.2,9.2,9.2S465.7,403.1,465.7,398z M451.8,398
		c0-2.6,2.1-4.7,4.7-4.7s4.7,2.1,4.7,4.7s-2.1,4.7-4.7,4.7S451.8,400.5,451.8,398z"/>
	<path class="st0" d="M321.6,329.9c-5.1,0-9.2,4.1-9.2,9.2s4.1,9.2,9.2,9.2s9.2-4.1,9.2-9.2S326.7,329.9,321.6,329.9z M321.6,343.8
		c-2.6,0-4.7-2.1-4.7-4.7s2.1-4.7,4.7-4.7s4.7,2.1,4.7,4.7S324.2,343.8,321.6,343.8z"/>
	
		<radialGradient id="SVGID_5_" cx="-345.5582" cy="261.8285" r="627.8418" gradientTransform="matrix(0.5203 0.4378 0.6439 -0.7651 280.7766 795.6297)" gradientUnits="userSpaceOnUse">
		<stop  offset="0" style="stop-color:#15004D"/>
		<stop  offset="0.36" style="stop-color:#15004D"/>
		<stop  offset="0.76" style="stop-color:#15004D;stop-opacity:0.33"/>
		<stop  offset="1" style="stop-color:#15004D;stop-opacity:0"/>
	</radialGradient>
	<path class="st6" d="M321.6,329.9c-5.1,0-9.2,4.1-9.2,9.2s4.1,9.2,9.2,9.2s9.2-4.1,9.2-9.2S326.7,329.9,321.6,329.9z M321.6,343.8
		c-2.6,0-4.7-2.1-4.7-4.7s2.1-4.7,4.7-4.7s4.7,2.1,4.7,4.7S324.2,343.8,321.6,343.8z"/>
	<path class="st3" d="M321.6,329.9c-5.1,0-9.2,4.1-9.2,9.2s4.1,9.2,9.2,9.2s9.2-4.1,9.2-9.2S326.7,329.9,321.6,329.9z M321.6,343.8
		c-2.6,0-4.7-2.1-4.7-4.7s2.1-4.7,4.7-4.7s4.7,2.1,4.7,4.7S324.2,343.8,321.6,343.8z"/>
	<path class="st0" d="M262.1,868.3c-5.1,0-9.2,4.1-9.2,9.2s4.1,9.2,9.2,9.2s9.2-4.1,9.2-9.2S267.2,868.3,262.1,868.3z M262.1,882.2
		c-2.6,0-4.6-2.1-4.6-4.7s2.1-4.7,4.6-4.7s4.7,2.1,4.7,4.7S264.6,882.2,262.1,882.2z"/>
	
		<radialGradient id="SVGID_6_" cx="-345.5582" cy="261.8285" r="627.8418" gradientTransform="matrix(0.5203 0.4378 0.6439 -0.7651 280.7766 795.6297)" gradientUnits="userSpaceOnUse">
		<stop  offset="0" style="stop-color:#15004D"/>
		<stop  offset="0.36" style="stop-color:#15004D"/>
		<stop  offset="0.76" style="stop-color:#15004D;stop-opacity:0.33"/>
		<stop  offset="1" style="stop-color:#15004D;stop-opacity:0"/>
	</radialGradient>
	<path class="st7" d="M262.1,868.3c-5.1,0-9.2,4.1-9.2,9.2s4.1,9.2,9.2,9.2s9.2-4.1,9.2-9.2S267.2,868.3,262.1,868.3z M262.1,882.2
		c-2.6,0-4.6-2.1-4.6-4.7s2.1-4.7,4.6-4.7s4.7,2.1,4.7,4.7S264.6,882.2,262.1,882.2z"/>
	<path class="st3" d="M262.1,868.3c-5.1,0-9.2,4.1-9.2,9.2s4.1,9.2,9.2,9.2s9.2-4.1,9.2-9.2S267.2,868.3,262.1,868.3z M262.1,882.2
		c-2.6,0-4.6-2.1-4.6-4.7s2.1-4.7,4.6-4.7s4.7,2.1,4.7,4.7S264.6,882.2,262.1,882.2z"/>
	<path class="st0" d="M359.4,128.5c5.1,0,9.2-4.1,9.2-9.2s-4.1-9.2-9.2-9.2s-9.2,4.1-9.2,9.2S354.3,128.5,359.4,128.5z M359.4,114.7
		c2.6,0,4.7,2.1,4.7,4.6s-2.1,4.7-4.7,4.7s-4.7-2.1-4.7-4.7S356.8,114.7,359.4,114.7z"/>
	
		<radialGradient id="SVGID_7_" cx="-345.5582" cy="261.8285" r="627.8418" gradientTransform="matrix(0.5203 0.4378 0.6439 -0.7651 280.7766 795.6297)" gradientUnits="userSpaceOnUse">
		<stop  offset="0" style="stop-color:#15004D"/>
		<stop  offset="0.36" style="stop-color:#15004D"/>
		<stop  offset="0.76" style="stop-color:#15004D;stop-opacity:0.33"/>
		<stop  offset="1" style="stop-color:#15004D;stop-opacity:0"/>
	</radialGradient>
	<path class="st8" d="M359.4,128.5c5.1,0,9.2-4.1,9.2-9.2s-4.1-9.2-9.2-9.2s-9.2,4.1-9.2,9.2S354.3,128.5,359.4,128.5z M359.4,114.7
		c2.6,0,4.7,2.1,4.7,4.6s-2.1,4.7-4.7,4.7s-4.7-2.1-4.7-4.7S356.8,114.7,359.4,114.7z"/>
	<path class="st3" d="M359.4,128.5c5.1,0,9.2-4.1,9.2-9.2s-4.1-9.2-9.2-9.2s-9.2,4.1-9.2,9.2S354.3,128.5,359.4,128.5z M359.4,114.7
		c2.6,0,4.7,2.1,4.7,4.6s-2.1,4.7-4.7,4.7s-4.7-2.1-4.7-4.7S356.8,114.7,359.4,114.7z"/>
	<path class="st0" d="M528.8,240.4c0-5.1-4.1-9.2-9.2-9.2s-9.2,4.1-9.2,9.2s4.1,9.2,9.2,9.2S528.8,245.5,528.8,240.4z M519.6,245
		c-2.6,0-4.7-2.1-4.7-4.7s2.1-4.7,4.7-4.7s4.7,2.1,4.7,4.7S522.2,245,519.6,245z"/>
	
		<radialGradient id="SVGID_8_" cx="-345.5582" cy="261.8285" r="627.8418" gradientTransform="matrix(0.5203 0.4378 0.6439 -0.7651 280.7766 795.6297)" gradientUnits="userSpaceOnUse">
		<stop  offset="0" style="stop-color:#15004D"/>
		<stop  offset="0.36" style="stop-color:#15004D"/>
		<stop  offset="0.76" style="stop-color:#15004D;stop-opacity:0.33"/>
		<stop  offset="1" style="stop-color:#15004D;stop-opacity:0"/>
	</radialGradient>
	<path class="st9" d="M528.8,240.4c0-5.1-4.1-9.2-9.2-9.2s-9.2,4.1-9.2,9.2s4.1,9.2,9.2,9.2S528.8,245.5,528.8,240.4z M519.6,245
		c-2.6,0-4.7-2.1-4.7-4.7s2.1-4.7,4.7-4.7s4.7,2.1,4.7,4.7S522.2,245,519.6,245z"/>
	<path class="st3" d="M528.8,240.4c0-5.1-4.1-9.2-9.2-9.2s-9.2,4.1-9.2,9.2s4.1,9.2,9.2,9.2S528.8,245.5,528.8,240.4z M519.6,245
		c-2.6,0-4.7-2.1-4.7-4.7s2.1-4.7,4.7-4.7s4.7,2.1,4.7,4.7S522.2,245,519.6,245z"/>
	<path class="st0" d="M90.4,494.4c5.1,0,9.2-4.1,9.2-9.2s-4.1-9.2-9.2-9.2s-9.2,4.1-9.2,9.2S85.3,494.4,90.4,494.4z M90.4,480.6
		c2.6,0,4.6,2.1,4.6,4.7s-2.1,4.7-4.6,4.7s-4.7-2.1-4.7-4.7S87.9,480.6,90.4,480.6z"/>
	
		<radialGradient id="SVGID_9_" cx="-345.5585" cy="261.8285" r="627.8412" gradientTransform="matrix(0.5203 0.4378 0.6439 -0.7651 280.7766 795.6297)" gradientUnits="userSpaceOnUse">
		<stop  offset="0" style="stop-color:#15004D"/>
		<stop  offset="0.36" style="stop-color:#15004D"/>
		<stop  offset="0.76" style="stop-color:#15004D;stop-opacity:0.33"/>
		<stop  offset="1" style="stop-color:#15004D;stop-opacity:0"/>
	</radialGradient>
	<path class="st10" d="M90.4,494.4c5.1,0,9.2-4.1,9.2-9.2s-4.1-9.2-9.2-9.2s-9.2,4.1-9.2,9.2S85.3,494.4,90.4,494.4z M90.4,480.6
		c2.6,0,4.6,2.1,4.6,4.7s-2.1,4.7-4.6,4.7s-4.7-2.1-4.7-4.7S87.9,480.6,90.4,480.6z"/>
	<path class="st3" d="M90.4,494.4c5.1,0,9.2-4.1,9.2-9.2s-4.1-9.2-9.2-9.2s-9.2,4.1-9.2,9.2S85.3,494.4,90.4,494.4z M90.4,480.6
		c2.6,0,4.6,2.1,4.6,4.7s-2.1,4.7-4.6,4.7s-4.7-2.1-4.7-4.7S87.9,480.6,90.4,480.6z"/>
	<path class="st0" d="M90.4,399.5c5.1,0,9.2-4.1,9.2-9.2s-4.1-9.2-9.2-9.2s-9.2,4.1-9.2,9.2S85.3,399.5,90.4,399.5z M90.4,385.6
		c2.6,0,4.6,2.1,4.6,4.7s-2.1,4.7-4.6,4.7s-4.7-2.1-4.7-4.7S87.9,385.6,90.4,385.6z"/>
	
		<radialGradient id="SVGID_10_" cx="-345.5582" cy="261.8285" r="627.8418" gradientTransform="matrix(0.5203 0.4378 0.6439 -0.7651 280.7766 795.6297)" gradientUnits="userSpaceOnUse">
		<stop  offset="0" style="stop-color:#15004D"/>
		<stop  offset="0.36" style="stop-color:#15004D"/>
		<stop  offset="0.76" style="stop-color:#15004D;stop-opacity:0.33"/>
		<stop  offset="1" style="stop-color:#15004D;stop-opacity:0"/>
	</radialGradient>
	<path class="st11" d="M90.4,399.5c5.1,0,9.2-4.1,9.2-9.2s-4.1-9.2-9.2-9.2s-9.2,4.1-9.2,9.2S85.3,399.5,90.4,399.5z M90.4,385.6
		c2.6,0,4.6,2.1,4.6,4.7s-2.1,4.7-4.6,4.7s-4.7-2.1-4.7-4.7S87.9,385.6,90.4,385.6z"/>
	<path class="st3" d="M90.4,399.5c5.1,0,9.2-4.1,9.2-9.2s-4.1-9.2-9.2-9.2s-9.2,4.1-9.2,9.2S85.3,399.5,90.4,399.5z M90.4,385.6
		c2.6,0,4.6,2.1,4.6,4.7s-2.1,4.7-4.6,4.7s-4.7-2.1-4.7-4.7S87.9,385.6,90.4,385.6z"/>
	<path class="st0" d="M210.7,144.1c5.1,0,9.2-4.1,9.2-9.2s-4.1-9.2-9.2-9.2s-9.2,4.1-9.2,9.2S205.6,144.1,210.7,144.1z M210.7,130.2
		c2.6,0,4.6,2.1,4.6,4.6s-2.1,4.7-4.6,4.7s-4.7-2.1-4.7-4.7S208.1,130.2,210.7,130.2z"/>
	
		<radialGradient id="SVGID_11_" cx="-345.5582" cy="261.8285" r="627.8418" gradientTransform="matrix(0.5203 0.4378 0.6439 -0.7651 280.7766 795.6297)" gradientUnits="userSpaceOnUse">
		<stop  offset="0" style="stop-color:#15004D"/>
		<stop  offset="0.36" style="stop-color:#15004D"/>
		<stop  offset="0.76" style="stop-color:#15004D;stop-opacity:0.33"/>
		<stop  offset="1" style="stop-color:#15004D;stop-opacity:0"/>
	</radialGradient>
	<path class="st12" d="M210.7,144.1c5.1,0,9.2-4.1,9.2-9.2s-4.1-9.2-9.2-9.2s-9.2,4.1-9.2,9.2S205.6,144.1,210.7,144.1z
		 M210.7,130.2c2.6,0,4.6,2.1,4.6,4.6s-2.1,4.7-4.6,4.7s-4.7-2.1-4.7-4.7S208.1,130.2,210.7,130.2z"/>
	<path class="st3" d="M210.7,144.1c5.1,0,9.2-4.1,9.2-9.2s-4.1-9.2-9.2-9.2s-9.2,4.1-9.2,9.2S205.6,144.1,210.7,144.1z M210.7,130.2
		c2.6,0,4.6,2.1,4.6,4.6s-2.1,4.7-4.6,4.7s-4.7-2.1-4.7-4.7S208.1,130.2,210.7,130.2z"/>
	<path class="st0" d="M390.7,26c5.1,0,9.2-4.1,9.2-9.2s-4.1-9.2-9.2-9.2s-9.2,4.1-9.2,9.2S385.6,26,390.7,26z M390.7,12.1
		c2.6,0,4.7,2.1,4.7,4.7s-2.1,4.6-4.7,4.6s-4.7-2.1-4.7-4.6S388.1,12.1,390.7,12.1z"/>
	
		<radialGradient id="SVGID_12_" cx="-345.5582" cy="261.8285" r="627.8418" gradientTransform="matrix(0.5203 0.4378 0.6439 -0.7651 280.7766 795.6297)" gradientUnits="userSpaceOnUse">
		<stop  offset="0" style="stop-color:#15004D"/>
		<stop  offset="0.36" style="stop-color:#15004D"/>
		<stop  offset="0.76" style="stop-color:#15004D;stop-opacity:0.33"/>
		<stop  offset="1" style="stop-color:#15004D;stop-opacity:0"/>
	</radialGradient>
	<path class="st13" d="M390.7,26c5.1,0,9.2-4.1,9.2-9.2s-4.1-9.2-9.2-9.2s-9.2,4.1-9.2,9.2S385.6,26,390.7,26z M390.7,12.1
		c2.6,0,4.7,2.1,4.7,4.7s-2.1,4.6-4.7,4.6s-4.7-2.1-4.7-4.6S388.1,12.1,390.7,12.1z"/>
	<path class="st3" d="M390.7,26c5.1,0,9.2-4.1,9.2-9.2s-4.1-9.2-9.2-9.2s-9.2,4.1-9.2,9.2S385.6,26,390.7,26z M390.7,12.1
		c2.6,0,4.7,2.1,4.7,4.7s-2.1,4.6-4.7,4.6s-4.7-2.1-4.7-4.6S388.1,12.1,390.7,12.1z"/>
	<path class="st0" d="M125.4,66.4c0-5.1-4.1-9.2-9.2-9.2s-9.2,4.1-9.2,9.2s4.1,9.2,9.2,9.2S125.4,71.5,125.4,66.4z M116.2,71.1
		c-2.6,0-4.6-2.1-4.6-4.7s2.1-4.6,4.6-4.6s4.7,2.1,4.7,4.6S118.8,71.1,116.2,71.1z"/>
	
		<radialGradient id="SVGID_13_" cx="-345.5582" cy="261.8285" r="627.8418" gradientTransform="matrix(0.5203 0.4378 0.6439 -0.7651 280.7766 795.6297)" gradientUnits="userSpaceOnUse">
		<stop  offset="0" style="stop-color:#15004D"/>
		<stop  offset="0.36" style="stop-color:#15004D"/>
		<stop  offset="0.76" style="stop-color:#15004D;stop-opacity:0.33"/>
		<stop  offset="1" style="stop-color:#15004D;stop-opacity:0"/>
	</radialGradient>
	<path class="st14" d="M125.4,66.4c0-5.1-4.1-9.2-9.2-9.2s-9.2,4.1-9.2,9.2s4.1,9.2,9.2,9.2S125.4,71.5,125.4,66.4z M116.2,71.1
		c-2.6,0-4.6-2.1-4.6-4.7s2.1-4.6,4.6-4.6s4.7,2.1,4.7,4.6S118.8,71.1,116.2,71.1z"/>
	<path class="st3" d="M125.4,66.4c0-5.1-4.1-9.2-9.2-9.2s-9.2,4.1-9.2,9.2s4.1,9.2,9.2,9.2S125.4,71.5,125.4,66.4z M116.2,71.1
		c-2.6,0-4.6-2.1-4.6-4.7s2.1-4.6,4.6-4.6s4.7,2.1,4.7,4.6S118.8,71.1,116.2,71.1z"/>
	<path class="st0" d="M574.4,651c0,4.5,3.3,8.3,7.6,9.1v-4.7c-1.8-0.7-3-2.3-3-4.3s1.2-3.7,3-4.3V642
		C577.7,642.8,574.4,646.5,574.4,651z"/>
	
		<radialGradient id="SVGID_14_" cx="-345.5582" cy="261.8285" r="627.8418" gradientTransform="matrix(0.5203 0.4378 0.6439 -0.7651 280.7766 795.6297)" gradientUnits="userSpaceOnUse">
		<stop  offset="0" style="stop-color:#15004D"/>
		<stop  offset="0.36" style="stop-color:#15004D"/>
		<stop  offset="0.76" style="stop-color:#15004D;stop-opacity:0.33"/>
		<stop  offset="1" style="stop-color:#15004D;stop-opacity:0"/>
	</radialGradient>
	<path class="st15" d="M574.4,651c0,4.5,3.3,8.3,7.6,9.1v-4.7c-1.8-0.7-3-2.3-3-4.3s1.2-3.7,3-4.3V642
		C577.7,642.8,574.4,646.5,574.4,651z"/>
	<path class="st3" d="M574.4,651c0,4.5,3.3,8.3,7.6,9.1v-4.7c-1.8-0.7-3-2.3-3-4.3s1.2-3.7,3-4.3V642
		C577.7,642.8,574.4,646.5,574.4,651z"/>
	<path class="st0" d="M470.3,699.2c-5.1,0-9.2,4.1-9.2,9.2s4.1,9.2,9.2,9.2s9.2-4.1,9.2-9.2S475.4,699.2,470.3,699.2z M470.3,713
		c-2.6,0-4.7-2.1-4.7-4.7s2.1-4.7,4.7-4.7s4.7,2.1,4.7,4.7S472.9,713,470.3,713z"/>
	
		<radialGradient id="SVGID_15_" cx="-345.5582" cy="261.8285" r="627.8418" gradientTransform="matrix(0.5203 0.4378 0.6439 -0.7651 280.7766 795.6297)" gradientUnits="userSpaceOnUse">
		<stop  offset="0" style="stop-color:#15004D"/>
		<stop  offset="0.36" style="stop-color:#15004D"/>
		<stop  offset="0.76" style="stop-color:#15004D;stop-opacity:0.33"/>
		<stop  offset="1" style="stop-color:#15004D;stop-opacity:0"/>
	</radialGradient>
	<path class="st16" d="M470.3,699.2c-5.1,0-9.2,4.1-9.2,9.2s4.1,9.2,9.2,9.2s9.2-4.1,9.2-9.2S475.4,699.2,470.3,699.2z M470.3,713
		c-2.6,0-4.7-2.1-4.7-4.7s2.1-4.7,4.7-4.7s4.7,2.1,4.7,4.7S472.9,713,470.3,713z"/>
	<path class="st3" d="M470.3,699.2c-5.1,0-9.2,4.1-9.2,9.2s4.1,9.2,9.2,9.2s9.2-4.1,9.2-9.2S475.4,699.2,470.3,699.2z M470.3,713
		c-2.6,0-4.7-2.1-4.7-4.7s2.1-4.7,4.7-4.7s4.7,2.1,4.7,4.7S472.9,713,470.3,713z"/>
	<circle class="st0" cx="344.5" cy="697.5" r="9.2"/>
	
		<radialGradient id="SVGID_16_" cx="-345.5582" cy="261.8285" r="627.8418" gradientTransform="matrix(0.5203 0.4378 0.6439 -0.7651 280.7766 795.6297)" gradientUnits="userSpaceOnUse">
		<stop  offset="0" style="stop-color:#15004D"/>
		<stop  offset="0.36" style="stop-color:#15004D"/>
		<stop  offset="0.76" style="stop-color:#15004D;stop-opacity:0.33"/>
		<stop  offset="1" style="stop-color:#15004D;stop-opacity:0"/>
	</radialGradient>
	<circle class="st17" cx="344.5" cy="697.5" r="9.2"/>
	<circle class="st3" cx="344.5" cy="697.5" r="9.2"/>
	<path class="st0" d="M83.9,734.1c5.1,0,9.2-4.1,9.2-9.2s-4.1-9.2-9.2-9.2s-9.2,4.1-9.2,9.2S78.8,734.1,83.9,734.1z M83.9,720.2
		c2.6,0,4.6,2.1,4.6,4.7s-2.1,4.7-4.6,4.7s-4.7-2.1-4.7-4.7S81.3,720.2,83.9,720.2z"/>
	
		<radialGradient id="SVGID_17_" cx="-345.5582" cy="261.8285" r="627.8418" gradientTransform="matrix(0.5203 0.4378 0.6439 -0.7651 280.7766 795.6297)" gradientUnits="userSpaceOnUse">
		<stop  offset="0" style="stop-color:#15004D"/>
		<stop  offset="0.36" style="stop-color:#15004D"/>
		<stop  offset="0.76" style="stop-color:#15004D;stop-opacity:0.33"/>
		<stop  offset="1" style="stop-color:#15004D;stop-opacity:0"/>
	</radialGradient>
	<path class="st18" d="M83.9,734.1c5.1,0,9.2-4.1,9.2-9.2s-4.1-9.2-9.2-9.2s-9.2,4.1-9.2,9.2S78.8,734.1,83.9,734.1z M83.9,720.2
		c2.6,0,4.6,2.1,4.6,4.7s-2.1,4.7-4.6,4.7s-4.7-2.1-4.7-4.7S81.3,720.2,83.9,720.2z"/>
	<path class="st3" d="M83.9,734.1c5.1,0,9.2-4.1,9.2-9.2s-4.1-9.2-9.2-9.2s-9.2,4.1-9.2,9.2S78.8,734.1,83.9,734.1z M83.9,720.2
		c2.6,0,4.6,2.1,4.6,4.7s-2.1,4.7-4.6,4.7s-4.7-2.1-4.7-4.7S81.3,720.2,83.9,720.2z"/>
	<path class="st0" d="M209.5,635.6c0-5.1-4.1-9.2-9.2-9.2s-9.2,4.1-9.2,9.2s4.1,9.2,9.2,9.2S209.5,640.7,209.5,635.6z M195.7,635.6
		c0-2.6,2.1-4.7,4.6-4.7s4.7,2.1,4.7,4.7s-2.1,4.7-4.7,4.7S195.7,638.2,195.7,635.6z"/>
	
		<radialGradient id="SVGID_18_" cx="-345.5582" cy="261.8285" r="627.8418" gradientTransform="matrix(0.5203 0.4378 0.6439 -0.7651 280.7766 795.6297)" gradientUnits="userSpaceOnUse">
		<stop  offset="0" style="stop-color:#15004D"/>
		<stop  offset="0.36" style="stop-color:#15004D"/>
		<stop  offset="0.76" style="stop-color:#15004D;stop-opacity:0.33"/>
		<stop  offset="1" style="stop-color:#15004D;stop-opacity:0"/>
	</radialGradient>
	<path class="st19" d="M209.5,635.6c0-5.1-4.1-9.2-9.2-9.2s-9.2,4.1-9.2,9.2s4.1,9.2,9.2,9.2S209.5,640.7,209.5,635.6z M195.7,635.6
		c0-2.6,2.1-4.7,4.6-4.7s4.7,2.1,4.7,4.7s-2.1,4.7-4.7,4.7S195.7,638.2,195.7,635.6z"/>
	<path class="st3" d="M209.5,635.6c0-5.1-4.1-9.2-9.2-9.2s-9.2,4.1-9.2,9.2s4.1,9.2,9.2,9.2S209.5,640.7,209.5,635.6z M195.7,635.6
		c0-2.6,2.1-4.7,4.6-4.7s4.7,2.1,4.7,4.7s-2.1,4.7-4.7,4.7S195.7,638.2,195.7,635.6z"/>
	<path class="st0" d="M209.5,816.3c-5.1,0-9.2,4.1-9.2,9.2s4.1,9.2,9.2,9.2s9.2-4.1,9.2-9.2S214.6,816.3,209.5,816.3z M209.5,830.2
		c-2.6,0-4.7-2.1-4.7-4.7s2.1-4.7,4.7-4.7s4.6,2.1,4.6,4.7S212.1,830.2,209.5,830.2z"/>
	
		<radialGradient id="SVGID_19_" cx="-345.5582" cy="261.8285" r="627.8418" gradientTransform="matrix(0.5203 0.4378 0.6439 -0.7651 280.7766 795.6297)" gradientUnits="userSpaceOnUse">
		<stop  offset="0" style="stop-color:#15004D"/>
		<stop  offset="0.36" style="stop-color:#15004D"/>
		<stop  offset="0.76" style="stop-color:#15004D;stop-opacity:0.33"/>
		<stop  offset="1" style="stop-color:#15004D;stop-opacity:0"/>
	</radialGradient>
	<path class="st20" d="M209.5,816.3c-5.1,0-9.2,4.1-9.2,9.2s4.1,9.2,9.2,9.2s9.2-4.1,9.2-9.2S214.6,816.3,209.5,816.3z M209.5,830.2
		c-2.6,0-4.7-2.1-4.7-4.7s2.1-4.7,4.7-4.7s4.6,2.1,4.6,4.7S212.1,830.2,209.5,830.2z"/>
	<path class="st3" d="M209.5,816.3c-5.1,0-9.2,4.1-9.2,9.2s4.1,9.2,9.2,9.2s9.2-4.1,9.2-9.2S214.6,816.3,209.5,816.3z M209.5,830.2
		c-2.6,0-4.7-2.1-4.7-4.7s2.1-4.7,4.7-4.7s4.6,2.1,4.6,4.7S212.1,830.2,209.5,830.2z"/>
	<path class="st0" d="M164.7,566c-5.1,0-9.2,4.1-9.2,9.2s4.1,9.2,9.2,9.2s9.2-4.1,9.2-9.2S169.8,566,164.7,566z M164.7,579.8
		c-2.6,0-4.7-2.1-4.7-4.7s2.1-4.7,4.7-4.7s4.6,2.1,4.6,4.7S167.2,579.8,164.7,579.8z"/>
	
		<radialGradient id="SVGID_20_" cx="-345.5582" cy="261.8285" r="627.8418" gradientTransform="matrix(0.5203 0.4378 0.6439 -0.7651 280.7766 795.6297)" gradientUnits="userSpaceOnUse">
		<stop  offset="0" style="stop-color:#15004D"/>
		<stop  offset="0.36" style="stop-color:#15004D"/>
		<stop  offset="0.76" style="stop-color:#15004D;stop-opacity:0.33"/>
		<stop  offset="1" style="stop-color:#15004D;stop-opacity:0"/>
	</radialGradient>
	<path class="st21" d="M164.7,566c-5.1,0-9.2,4.1-9.2,9.2s4.1,9.2,9.2,9.2s9.2-4.1,9.2-9.2S169.8,566,164.7,566z M164.7,579.8
		c-2.6,0-4.7-2.1-4.7-4.7s2.1-4.7,4.7-4.7s4.6,2.1,4.6,4.7S167.2,579.8,164.7,579.8z"/>
	<path class="st3" d="M164.7,566c-5.1,0-9.2,4.1-9.2,9.2s4.1,9.2,9.2,9.2s9.2-4.1,9.2-9.2S169.8,566,164.7,566z M164.7,579.8
		c-2.6,0-4.7-2.1-4.7-4.7s2.1-4.7,4.7-4.7s4.6,2.1,4.6,4.7S167.2,579.8,164.7,579.8z"/>
	<path class="st0" d="M474.9,565.6c0-5.1-4.1-9.2-9.2-9.2s-9.2,4.1-9.2,9.2s4.1,9.2,9.2,9.2S474.9,570.7,474.9,565.6z M461,565.6
		c0-2.6,2.1-4.7,4.7-4.7s4.7,2.1,4.7,4.7s-2.1,4.7-4.7,4.7S461,568.1,461,565.6z"/>
	
		<radialGradient id="SVGID_21_" cx="-345.5582" cy="261.8285" r="627.8418" gradientTransform="matrix(0.5203 0.4378 0.6439 -0.7651 280.7766 795.6297)" gradientUnits="userSpaceOnUse">
		<stop  offset="0" style="stop-color:#15004D"/>
		<stop  offset="0.36" style="stop-color:#15004D"/>
		<stop  offset="0.76" style="stop-color:#15004D;stop-opacity:0.33"/>
		<stop  offset="1" style="stop-color:#15004D;stop-opacity:0"/>
	</radialGradient>
	<path class="st22" d="M474.9,565.6c0-5.1-4.1-9.2-9.2-9.2s-9.2,4.1-9.2,9.2s4.1,9.2,9.2,9.2S474.9,570.7,474.9,565.6z M461,565.6
		c0-2.6,2.1-4.7,4.7-4.7s4.7,2.1,4.7,4.7s-2.1,4.7-4.7,4.7S461,568.1,461,565.6z"/>
	<path class="st3" d="M474.9,565.6c0-5.1-4.1-9.2-9.2-9.2s-9.2,4.1-9.2,9.2s4.1,9.2,9.2,9.2S474.9,570.7,474.9,565.6z M461,565.6
		c0-2.6,2.1-4.7,4.7-4.7s4.7,2.1,4.7,4.7s-2.1,4.7-4.7,4.7S461,568.1,461,565.6z"/>
	<path class="st0" d="M43,244.4c0-5.1-4.1-9.2-9.2-9.2s-9.2,4.1-9.2,9.2s4.1,9.2,9.2,9.2S43,249.5,43,244.4z M33.8,249
		c-2.6,0-4.7-2.1-4.7-4.7s2.1-4.7,4.7-4.7s4.6,2.1,4.6,4.7S36.3,249,33.8,249z"/>
	
		<radialGradient id="SVGID_22_" cx="-345.5582" cy="261.8285" r="627.8418" gradientTransform="matrix(0.5203 0.4378 0.6439 -0.7651 280.7766 795.6297)" gradientUnits="userSpaceOnUse">
		<stop  offset="0" style="stop-color:#15004D"/>
		<stop  offset="0.36" style="stop-color:#15004D"/>
		<stop  offset="0.76" style="stop-color:#15004D;stop-opacity:0.33"/>
		<stop  offset="1" style="stop-color:#15004D;stop-opacity:0"/>
	</radialGradient>
	<path class="st23" d="M43,244.4c0-5.1-4.1-9.2-9.2-9.2s-9.2,4.1-9.2,9.2s4.1,9.2,9.2,9.2S43,249.5,43,244.4z M33.8,249
		c-2.6,0-4.7-2.1-4.7-4.7s2.1-4.7,4.7-4.7s4.6,2.1,4.6,4.7S36.3,249,33.8,249z"/>
	<path class="st3" d="M43,244.4c0-5.1-4.1-9.2-9.2-9.2s-9.2,4.1-9.2,9.2s4.1,9.2,9.2,9.2S43,249.5,43,244.4z M33.8,249
		c-2.6,0-4.7-2.1-4.7-4.7s2.1-4.7,4.7-4.7s4.6,2.1,4.6,4.7S36.3,249,33.8,249z"/>
	<path class="st0" d="M498,834.8c5.1,0,9.2-4.1,9.2-9.2c0-4.1-2.7-7.6-6.4-8.8c-3.9,3.5-7.9,6.9-11.9,10.3
		C489.7,831.4,493.4,834.8,498,834.8z M498,820.9c2.6,0,4.7,2.1,4.7,4.7s-2.1,4.7-4.7,4.7s-4.7-2.1-4.7-4.7S495.5,820.9,498,820.9z"
		/>
	<path class="st3" d="M498,834.8c5.1,0,9.2-4.1,9.2-9.2c0-4.1-2.7-7.6-6.4-8.8c-3.9,3.5-7.9,6.9-11.9,10.3
		C489.7,831.4,493.4,834.8,498,834.8z M498,820.9c2.6,0,4.7,2.1,4.7,4.7s-2.1,4.7-4.7,4.7s-4.7-2.1-4.7-4.7S495.5,820.9,498,820.9z"
		/>
	<path class="st0" d="M488.8,825.5c0,0.5,0.1,1,0.1,1.5c4-3.4,7.9-6.8,11.9-10.3c-0.9-0.3-1.8-0.4-2.8-0.4
		C492.9,816.3,488.8,820.5,488.8,825.5z"/>
	
		<radialGradient id="SVGID_23_" cx="-345.5582" cy="261.8285" r="627.8418" gradientTransform="matrix(0.5203 0.4378 0.6439 -0.7651 280.7766 795.6297)" gradientUnits="userSpaceOnUse">
		<stop  offset="0" style="stop-color:#15004D"/>
		<stop  offset="0.36" style="stop-color:#15004D"/>
		<stop  offset="0.76" style="stop-color:#15004D;stop-opacity:0.33"/>
		<stop  offset="1" style="stop-color:#15004D;stop-opacity:0"/>
	</radialGradient>
	<path class="st24" d="M488.8,825.5c0,0.5,0.1,1,0.1,1.5c4-3.4,7.9-6.8,11.9-10.3c-0.9-0.3-1.8-0.4-2.8-0.4
		C492.9,816.3,488.8,820.5,488.8,825.5z"/>
	<path class="st3" d="M488.8,825.5c0,0.5,0.1,1,0.1,1.5c4-3.4,7.9-6.8,11.9-10.3c-0.9-0.3-1.8-0.4-2.8-0.4
		C492.9,816.3,488.8,820.5,488.8,825.5z"/>
	<path class="st0" d="M539.7,391.1c0,5.1,4.1,9.2,9.2,9.2s9.2-4.1,9.2-9.2s-4.1-9.2-9.2-9.2S539.7,386,539.7,391.1z M548.9,386.4
		c2.6,0,4.7,2.1,4.7,4.7s-2.1,4.7-4.7,4.7s-4.7-2.1-4.7-4.7S546.3,386.4,548.9,386.4z"/>
	
		<radialGradient id="SVGID_24_" cx="-345.5582" cy="261.8285" r="627.8418" gradientTransform="matrix(0.5203 0.4378 0.6439 -0.7651 280.7766 795.6297)" gradientUnits="userSpaceOnUse">
		<stop  offset="0" style="stop-color:#15004D"/>
		<stop  offset="0.36" style="stop-color:#15004D"/>
		<stop  offset="0.76" style="stop-color:#15004D;stop-opacity:0.33"/>
		<stop  offset="1" style="stop-color:#15004D;stop-opacity:0"/>
	</radialGradient>
	<path class="st25" d="M539.7,391.1c0,5.1,4.1,9.2,9.2,9.2s9.2-4.1,9.2-9.2s-4.1-9.2-9.2-9.2S539.7,386,539.7,391.1z M548.9,386.4
		c2.6,0,4.7,2.1,4.7,4.7s-2.1,4.7-4.7,4.7s-4.7-2.1-4.7-4.7S546.3,386.4,548.9,386.4z"/>
	<path class="st3" d="M539.7,391.1c0,5.1,4.1,9.2,9.2,9.2s9.2-4.1,9.2-9.2s-4.1-9.2-9.2-9.2S539.7,386,539.7,391.1z M548.9,386.4
		c2.6,0,4.7,2.1,4.7,4.7s-2.1,4.7-4.7,4.7s-4.7-2.1-4.7-4.7S546.3,386.4,548.9,386.4z"/>
	<path class="st26" d="M579,651c0,2,1.2,3.7,3,4.3v-8.7C580.2,647.4,579,649,579,651z"/>
	<circle class="st26" cx="518" cy="544.1" r="4.7"/>
	
		<ellipse transform="matrix(0.9871 -0.1602 0.1602 0.9871 -115.0319 22.7948)" class="st26" cx="83.9" cy="724.9" rx="4.6" ry="4.7"/>
	<circle class="st26" cx="548.9" cy="391.1" r="4.7"/>
	<circle class="st27" cx="321.6" cy="339.2" r="4.7"/>
	<circle class="st28" cx="359.4" cy="119.3" r="4.7"/>
	<circle class="st27" cx="470.3" cy="708.4" r="4.7"/>
	<circle class="st27" cx="21.8" cy="556" r="4.7"/>
	
		<ellipse transform="matrix(0.3827 -0.9239 0.9239 0.3827 -633.3687 703.1976)" class="st27" cx="209.5" cy="825.5" rx="4.7" ry="4.7"/>
	
		<ellipse transform="matrix(0.3827 -0.9239 0.9239 0.3827 -429.719 507.2008)" class="st27" cx="164.7" cy="575.2" rx="4.7" ry="4.7"/>
	<circle class="st27" cx="465.7" cy="565.6" r="4.7"/>
	
		<ellipse transform="matrix(0.3827 -0.9239 0.9239 0.3827 -204.9218 182.0533)" class="st29" cx="33.8" cy="244.4" rx="4.7" ry="4.7"/>
	
		<ellipse transform="matrix(0.3827 -0.9239 0.9239 0.3827 -243.3993 292.2076)" class="st27" cx="97" cy="328.2" rx="4.7" ry="4.7"/>
	<circle class="st27" cx="335.1" cy="43.3" r="4.7"/>
	<circle class="st27" cx="362" cy="483.2" r="4.7"/>
	
		<ellipse transform="matrix(0.9871 -0.1602 0.1602 0.9871 -137.1794 53.3118)" class="st27" cx="262.1" cy="877.5" rx="4.6" ry="4.7"/>
	
		<ellipse transform="matrix(0.9871 -0.1602 0.1602 0.9871 -76.5562 20.7508)" class="st26" cx="90.4" cy="485.2" rx="4.6" ry="4.7"/>
	
		<ellipse transform="matrix(0.7071 -0.7071 0.7071 0.7071 -33.662 188.4928)" class="st27" cx="210.7" cy="134.9" rx="4.6" ry="4.6"/>
	<circle class="st27" cx="569.8" cy="778.8" r="4.7"/>
	<circle class="st27" cx="200.3" cy="635.6" r="4.7"/>
	<circle class="st27" cx="498" cy="825.5" r="4.7"/>
	<circle class="st27" cx="456.4" cy="398" r="4.7"/>
	<circle class="st27" cx="519.6" cy="240.4" r="4.7"/>
	
		<ellipse transform="matrix(0.9871 -0.1602 0.1602 0.9871 -61.3468 19.5247)" class="st26" cx="90.4" cy="390.3" rx="4.6" ry="4.7"/>
	<circle class="st27" cx="390.7" cy="16.8" r="4.7"/>
	
		<ellipse transform="matrix(0.9732 -0.2298 0.2298 0.9732 -12.1558 28.4794)" class="st27" cx="116.2" cy="66.4" rx="4.6" ry="4.7"/>
	
		<ellipse transform="matrix(0.3827 -0.9239 0.9239 0.3827 -538.638 703.9121)" class="st27" cx="257.4" cy="755" rx="4.7" ry="4.7"/>
	<circle class="st26" cx="412.6" cy="411.9" r="3"/>
	<circle class="st26" cx="412.6" cy="598" r="3"/>
	<circle class="st26" cx="28.1" cy="443" r="3"/>
	<circle class="st26" cx="82.4" cy="10" r="3"/>
	<circle class="st26" cx="358.9" cy="300.8" r="3"/>
	<circle class="st26" cx="60.1" cy="616.6" r="3"/>
	<circle class="st26" cx="487.9" cy="415" r="3"/>
	<circle class="st26" cx="51.1" cy="417" r="3"/>
	<circle class="st26" cx="558.5" cy="471.9" r="3"/>
	<circle class="st26" cx="412.6" cy="779.1" r="3.1"/>
	<circle class="st26" cx="352.8" cy="911.2" r="3.1"/>
	<circle class="st26" cx="194.2" cy="19.2" r="3"/>
	<circle class="st26" cx="395" cy="186.9" r="3"/>
	<circle class="st26" cx="405.9" cy="236.7" r="3"/>
	<circle class="st26" cx="558.5" cy="839.2" r="3.1"/>
	<circle class="st26" cx="234.7" cy="177.8" r="3"/>
	<circle class="st26" cx="60.8" cy="223.7" r="3"/>
	<circle class="st26" cx="39.6" cy="53.3" r="3"/>
	<circle class="st26" cx="567.3" cy="201.5" r="3"/>
	<circle class="st26" cx="54.7" cy="546.2" r="3"/>
	<circle class="st26" cx="39.5" cy="304.4" r="3"/>
	<circle class="st26" cx="143" cy="370.1" r="3"/>
	<circle class="st26" cx="39.5" cy="671.7" r="3.1"/>
	<circle class="st26" cx="143" cy="737.4" r="3.1"/>
	<circle class="st26" cx="25" cy="814.8" r="3.1"/>
	<circle class="st26" cx="204.9" cy="782.2" r="3.1"/>
	<circle class="st26" cx="266" cy="645.9" r="3"/>
	<circle class="st29" cx="349.8" cy="522.1" r="3"/>
	<circle class="st29" cx="155.2" cy="4.9" r="3"/>
	<circle class="st29" cx="345.6" cy="72.8" r="3"/>
	<circle class="st29" cx="465.7" cy="345.7" r="3"/>
	<circle class="st29" cx="446.7" cy="470.2" r="3"/>
	<circle class="st29" cx="381.9" cy="524.7" r="3"/>
	<circle class="st27" cx="473.8" cy="528" r="3"/>
	<circle class="st29" cx="534" cy="314" r="3"/>
	<circle class="st29" cx="44.8" cy="18" r="3"/>
	<circle class="st29" cx="418.3" cy="6.3" r="3"/>
	<circle class="st29" cx="426" cy="737.4" r="3.1"/>
	<circle class="st29" cx="308" cy="814.8" r="3.1"/>
	<circle class="st29" cx="100.7" cy="595.3" r="3"/>
	<circle class="st28" cx="487.9" cy="782.2" r="3.1"/>
	<circle class="st29" cx="57.7" cy="130.1" r="3"/>
	<path class="st29" d="M140.2,140.3c1.7,0,3-1.4,3-3.1c0-1.7-1.4-3-3-3c-1.7,0-3,1.4-3,3C137.2,138.9,138.5,140.3,140.2,140.3z"/>
	<circle class="st29" cx="311.1" cy="119.3" r="3"/>
	<circle class="st29" cx="241.5" cy="41.5" r="3"/>
	<circle class="st29" cx="258.1" cy="217.5" r="3"/>
	<circle class="st29" cx="534" cy="681.3" r="3.1"/>
	<circle class="st29" cx="426.1" cy="81.6" r="3"/>
	<circle class="st29" cx="483.4" cy="133.9" r="3"/>
	<circle class="st29" cx="21.9" cy="720.2" r="3.1"/>
	<circle class="st29" cx="549.1" cy="645.9" r="3"/>
	<circle class="st29" cx="17.8" cy="110.7" r="3"/>
	<circle class="st26" cx="129.6" cy="411.9" r="3"/>
	<circle class="st29" cx="555.9" cy="74.8" r="3"/>
	<circle class="st29" cx="204.9" cy="415" r="3"/>
	<circle class="st29" cx="275.5" cy="471.9" r="3"/>
	<circle class="st29" cx="190.7" cy="528" r="3"/>
	<circle class="st29" cx="249.7" cy="282.7" r="3"/>
	<circle class="st29" cx="129.6" cy="779.1" r="3.1"/>
	<circle class="st29" cx="24.2" cy="858.4" r="3.1"/>
	<circle class="st29" cx="275.5" cy="839.2" r="3.1"/>
	<circle class="st29" cx="160" cy="908.9" r="3.1"/>
	<circle class="st29" cx="251" cy="681.3" r="3.1"/>
	<circle class="st29" cx="136.9" cy="697.5" r="3.1"/>
	<circle class="st0" cx="411.2" cy="550.2" r="17.9"/>
	
		<radialGradient id="SVGID_25_" cx="-345.5582" cy="261.8285" r="627.8418" gradientTransform="matrix(0.5203 0.4378 0.6439 -0.7651 280.7766 795.6297)" gradientUnits="userSpaceOnUse">
		<stop  offset="0" style="stop-color:#15004D"/>
		<stop  offset="0.36" style="stop-color:#15004D"/>
		<stop  offset="0.76" style="stop-color:#15004D;stop-opacity:0.33"/>
		<stop  offset="1" style="stop-color:#15004D;stop-opacity:0"/>
	</radialGradient>
	<circle class="st30" cx="411.2" cy="550.2" r="17.9"/>
	<circle class="st3" cx="411.2" cy="550.2" r="17.9"/>
	<circle class="st0" cx="530.8" cy="746.5" r="17.9"/>
	
		<radialGradient id="SVGID_26_" cx="-345.5582" cy="261.8285" r="627.8418" gradientTransform="matrix(0.5203 0.4378 0.6439 -0.7651 280.7766 795.6297)" gradientUnits="userSpaceOnUse">
		<stop  offset="0" style="stop-color:#15004D"/>
		<stop  offset="0.36" style="stop-color:#15004D"/>
		<stop  offset="0.76" style="stop-color:#15004D;stop-opacity:0.33"/>
		<stop  offset="1" style="stop-color:#15004D;stop-opacity:0"/>
	</radialGradient>
	<circle class="st31" cx="530.8" cy="746.5" r="17.9"/>
	<circle class="st3" cx="530.8" cy="746.5" r="17.9"/>
	
		<ellipse transform="matrix(0.9871 -0.1602 0.1602 0.9871 -137.1664 23.8293)" class="st0" cx="79.2" cy="862.7" rx="17.9" ry="17.9"/>
	
		<radialGradient id="SVGID_27_" cx="-345.5582" cy="261.8285" r="627.8418" gradientTransform="matrix(0.5203 0.4378 0.6439 -0.7651 280.7766 795.6297)" gradientUnits="userSpaceOnUse">
		<stop  offset="0" style="stop-color:#15004D"/>
		<stop  offset="0.36" style="stop-color:#15004D"/>
		<stop  offset="0.76" style="stop-color:#15004D;stop-opacity:0.33"/>
		<stop  offset="1" style="stop-color:#15004D;stop-opacity:0"/>
	</radialGradient>
	<circle class="st32" cx="79.2" cy="862.7" r="17.9"/>
	
		<ellipse transform="matrix(0.9871 -0.1602 0.1602 0.9871 -137.1664 23.8293)" class="st3" cx="79.2" cy="862.7" rx="17.9" ry="17.9"/>
	
		<ellipse transform="matrix(0.9871 -0.1602 0.1602 0.9871 -26.1346 45.1566)" class="st0" cx="267" cy="184.7" rx="17.9" ry="17.9"/>
	
		<radialGradient id="SVGID_28_" cx="-345.5582" cy="261.8285" r="627.8418" gradientTransform="matrix(0.5203 0.4378 0.6439 -0.7651 280.7766 795.6297)" gradientUnits="userSpaceOnUse">
		<stop  offset="0" style="stop-color:#15004D"/>
		<stop  offset="0.36" style="stop-color:#15004D"/>
		<stop  offset="0.76" style="stop-color:#15004D;stop-opacity:0.33"/>
		<stop  offset="1" style="stop-color:#15004D;stop-opacity:0"/>
	</radialGradient>
	<circle class="st33" cx="267" cy="184.7" r="17.9"/>
	
		<ellipse transform="matrix(0.9871 -0.1602 0.1602 0.9871 -26.1346 45.1566)" class="st3" cx="267" cy="184.7" rx="17.9" ry="17.9"/>
	
		<ellipse transform="matrix(0.9871 -0.1602 0.1602 0.9871 -51.5921 40.7324)" class="st0" cx="226.8" cy="340.4" rx="17.9" ry="17.9"/>
	
		<radialGradient id="SVGID_29_" cx="-345.5582" cy="261.8285" r="627.8418" gradientTransform="matrix(0.5203 0.4378 0.6439 -0.7651 280.7766 795.6297)" gradientUnits="userSpaceOnUse">
		<stop  offset="0" style="stop-color:#15004D"/>
		<stop  offset="0.36" style="stop-color:#15004D"/>
		<stop  offset="0.76" style="stop-color:#15004D;stop-opacity:0.33"/>
		<stop  offset="1" style="stop-color:#15004D;stop-opacity:0"/>
	</radialGradient>
	<circle class="st34" cx="226.8" cy="340.4" r="17.9"/>
	
		<ellipse transform="matrix(0.9871 -0.1602 0.1602 0.9871 -51.5921 40.7324)" class="st3" cx="226.8" cy="340.4" rx="17.9" ry="17.9"/>
	
		<ellipse transform="matrix(0.3827 -0.9239 0.9239 0.3827 -396.609 456.7329)" class="st0" cx="143.5" cy="525.2" rx="17.9" ry="17.9"/>
	
		<radialGradient id="SVGID_30_" cx="-345.5582" cy="261.8285" r="627.8418" gradientTransform="matrix(0.5203 0.4378 0.6439 -0.7651 280.7766 795.6297)" gradientUnits="userSpaceOnUse">
		<stop  offset="0" style="stop-color:#15004D"/>
		<stop  offset="0.36" style="stop-color:#15004D"/>
		<stop  offset="0.76" style="stop-color:#15004D;stop-opacity:0.33"/>
		<stop  offset="1" style="stop-color:#15004D;stop-opacity:0"/>
	</radialGradient>
	<circle class="st35" cx="143.5" cy="525.2" r="17.9"/>
	
		<ellipse transform="matrix(0.3827 -0.9239 0.9239 0.3827 -396.609 456.7329)" class="st3" cx="143.5" cy="525.2" rx="17.9" ry="17.9"/>
	<path class="st0" d="M430.8,920.5c0-8.5-6.9-15.5-15.5-15.5s-15.5,6.9-15.5,15.5c0,6.8,4.4,12.5,10.4,14.6h10
		C426.5,933,430.8,927.3,430.8,920.5z M415.4,931.1c-5.8,0-10.6-4.7-10.6-10.6s4.7-10.6,10.6-10.6s10.6,4.7,10.6,10.6
		S421.2,931.1,415.4,931.1z"/>
	<path class="st3" d="M430.8,920.5c0-8.5-6.9-15.5-15.5-15.5s-15.5,6.9-15.5,15.5c0,6.8,4.4,12.5,10.4,14.6h10
		C426.5,933,430.8,927.3,430.8,920.5z M415.4,931.1c-5.8,0-10.6-4.7-10.6-10.6s4.7-10.6,10.6-10.6s10.6,4.7,10.6,10.6
		S421.2,931.1,415.4,931.1z"/>
	<path class="st0" d="M408.3,610.9c-8.5,0-15.5,6.9-15.5,15.5s6.9,15.5,15.5,15.5s15.5-6.9,15.5-15.5S416.9,610.9,408.3,610.9z
		 M408.3,636.9c-5.8,0-10.6-4.7-10.6-10.6s4.7-10.6,10.6-10.6s10.6,4.7,10.6,10.6S414.2,636.9,408.3,636.9z"/>
	
		<radialGradient id="SVGID_31_" cx="-345.5582" cy="261.8285" r="627.8418" gradientTransform="matrix(0.5203 0.4378 0.6439 -0.7651 280.7766 795.6297)" gradientUnits="userSpaceOnUse">
		<stop  offset="0" style="stop-color:#15004D"/>
		<stop  offset="0.36" style="stop-color:#15004D"/>
		<stop  offset="0.76" style="stop-color:#15004D;stop-opacity:0.33"/>
		<stop  offset="1" style="stop-color:#15004D;stop-opacity:0"/>
	</radialGradient>
	<path class="st36" d="M408.3,610.9c-8.5,0-15.5,6.9-15.5,15.5s6.9,15.5,15.5,15.5s15.5-6.9,15.5-15.5S416.9,610.9,408.3,610.9z
		 M408.3,636.9c-5.8,0-10.6-4.7-10.6-10.6s4.7-10.6,10.6-10.6s10.6,4.7,10.6,10.6S414.2,636.9,408.3,636.9z"/>
	<path class="st3" d="M408.3,610.9c-8.5,0-15.5,6.9-15.5,15.5s6.9,15.5,15.5,15.5s15.5-6.9,15.5-15.5S416.9,610.9,408.3,610.9z
		 M408.3,636.9c-5.8,0-10.6-4.7-10.6-10.6s4.7-10.6,10.6-10.6s10.6,4.7,10.6,10.6S414.2,636.9,408.3,636.9z"/>
	<path class="st0" d="M527.3,142c8.5,0,15.5-6.9,15.5-15.5c0-8.5-6.9-15.5-15.5-15.5s-15.5,6.9-15.5,15.5
		C511.9,135.1,518.8,142,527.3,142z M527.3,116c5.8,0,10.6,4.7,10.6,10.6c0,5.8-4.7,10.6-10.6,10.6s-10.6-4.7-10.6-10.6
		C516.8,120.7,521.5,116,527.3,116z"/>
	
		<radialGradient id="SVGID_32_" cx="-345.5582" cy="261.8285" r="627.8418" gradientTransform="matrix(0.5203 0.4378 0.6439 -0.7651 280.7766 795.6297)" gradientUnits="userSpaceOnUse">
		<stop  offset="0" style="stop-color:#15004D"/>
		<stop  offset="0.36" style="stop-color:#15004D"/>
		<stop  offset="0.76" style="stop-color:#15004D;stop-opacity:0.33"/>
		<stop  offset="1" style="stop-color:#15004D;stop-opacity:0"/>
	</radialGradient>
	<path class="st37" d="M527.3,142c8.5,0,15.5-6.9,15.5-15.5c0-8.5-6.9-15.5-15.5-15.5s-15.5,6.9-15.5,15.5
		C511.9,135.1,518.8,142,527.3,142z M527.3,116c5.8,0,10.6,4.7,10.6,10.6c0,5.8-4.7,10.6-10.6,10.6s-10.6-4.7-10.6-10.6
		C516.8,120.7,521.5,116,527.3,116z"/>
	<path class="st3" d="M527.3,142c8.5,0,15.5-6.9,15.5-15.5c0-8.5-6.9-15.5-15.5-15.5s-15.5,6.9-15.5,15.5
		C511.9,135.1,518.8,142,527.3,142z M527.3,116c5.8,0,10.6,4.7,10.6,10.6c0,5.8-4.7,10.6-10.6,10.6s-10.6-4.7-10.6-10.6
		C516.8,120.7,521.5,116,527.3,116z"/>
	<path class="st0" d="M308,387.1c-8.5,0-15.5,6.9-15.5,15.5s6.9,15.5,15.5,15.5s15.5-6.9,15.5-15.5S316.5,387.1,308,387.1z
		 M308,413.2c-5.8,0-10.6-4.7-10.6-10.6s4.7-10.6,10.6-10.6s10.6,4.7,10.6,10.6S313.8,413.2,308,413.2z"/>
	
		<radialGradient id="SVGID_33_" cx="-345.5582" cy="261.8285" r="627.8418" gradientTransform="matrix(0.5203 0.4378 0.6439 -0.7651 280.7766 795.6297)" gradientUnits="userSpaceOnUse">
		<stop  offset="0" style="stop-color:#15004D"/>
		<stop  offset="0.36" style="stop-color:#15004D"/>
		<stop  offset="0.76" style="stop-color:#15004D;stop-opacity:0.33"/>
		<stop  offset="1" style="stop-color:#15004D;stop-opacity:0"/>
	</radialGradient>
	<path class="st38" d="M308,387.1c-8.5,0-15.5,6.9-15.5,15.5s6.9,15.5,15.5,15.5s15.5-6.9,15.5-15.5S316.5,387.1,308,387.1z
		 M308,413.2c-5.8,0-10.6-4.7-10.6-10.6s4.7-10.6,10.6-10.6s10.6,4.7,10.6,10.6S313.8,413.2,308,413.2z"/>
	<path class="st3" d="M308,387.1c-8.5,0-15.5,6.9-15.5,15.5s6.9,15.5,15.5,15.5s15.5-6.9,15.5-15.5S316.5,387.1,308,387.1z
		 M308,413.2c-5.8,0-10.6-4.7-10.6-10.6s4.7-10.6,10.6-10.6s10.6,4.7,10.6,10.6S313.8,413.2,308,413.2z"/>
	<path class="st0" d="M152.1,221.5c8.5,0,15.5-6.9,15.5-15.5s-6.9-15.5-15.5-15.5c-8.5,0-15.5,6.9-15.5,15.5
		S143.6,221.5,152.1,221.5z M152.1,195.5c5.8,0,10.6,4.7,10.6,10.6s-4.7,10.6-10.6,10.6c-5.8,0-10.6-4.7-10.6-10.6
		S146.3,195.5,152.1,195.5z"/>
	
		<radialGradient id="SVGID_34_" cx="-345.5582" cy="261.8285" r="627.8418" gradientTransform="matrix(0.5203 0.4378 0.6439 -0.7651 280.7766 795.6297)" gradientUnits="userSpaceOnUse">
		<stop  offset="0" style="stop-color:#15004D"/>
		<stop  offset="0.36" style="stop-color:#15004D"/>
		<stop  offset="0.76" style="stop-color:#15004D;stop-opacity:0.33"/>
		<stop  offset="1" style="stop-color:#15004D;stop-opacity:0"/>
	</radialGradient>
	<path class="st39" d="M152.1,221.5c8.5,0,15.5-6.9,15.5-15.5s-6.9-15.5-15.5-15.5c-8.5,0-15.5,6.9-15.5,15.5
		S143.6,221.5,152.1,221.5z M152.1,195.5c5.8,0,10.6,4.7,10.6,10.6s-4.7,10.6-10.6,10.6c-5.8,0-10.6-4.7-10.6-10.6
		S146.3,195.5,152.1,195.5z"/>
	<path class="st3" d="M152.1,221.5c8.5,0,15.5-6.9,15.5-15.5s-6.9-15.5-15.5-15.5c-8.5,0-15.5,6.9-15.5,15.5
		S143.6,221.5,152.1,221.5z M152.1,195.5c5.8,0,10.6,4.7,10.6,10.6s-4.7,10.6-10.6,10.6c-5.8,0-10.6-4.7-10.6-10.6
		S146.3,195.5,152.1,195.5z"/>
	<circle class="st26" cx="415.4" cy="920.5" r="10.6"/>
	<circle class="st26" cx="408.3" cy="626.3" r="10.6"/>
	<circle class="st26" cx="527.3" cy="126.6" r="10.6"/>
	<circle class="st26" cx="308" cy="402.6" r="10.6"/>
	<circle class="st26" cx="152.1" cy="206.1" r="10.6"/>
	<circle class="st26" cx="538.6" cy="521.4" r="7.2"/>
	<circle class="st26" cx="510.1" cy="889.6" r="7.2"/>
	<circle class="st29" cx="459.3" cy="867.1" r="8.9"/>
	<circle class="st29" cx="445.5" cy="238" r="8.9"/>
	<circle class="st40" cx="481" cy="80.2" r="8.4"/>
	
		<ellipse transform="matrix(0.9871 -0.1602 0.1602 0.9871 -142.8862 44.5965)" class="st40" cx="205.2" cy="908.6" rx="8.4" ry="8.4"/>
	<circle class="st41" cx="347.8" cy="647.6" r="8.9"/>
	<circle class="st40" cx="337.4" cy="738.2" r="8.4"/>
	
		<ellipse transform="matrix(0.3827 -0.9239 0.9239 0.3827 -260.4948 397.2423)" class="st26" cx="167" cy="393.6" rx="7.7" ry="7.7"/>
	<circle class="st27" cx="341.4" cy="144" r="4"/>
	<circle class="st26" cx="234.5" cy="234" r="4.9"/>
	<path class="st26" d="M135.1,291.9l4.6,1.6c0.5,0.2,0.8,0.5,1,1l1.6,4.6c0.3,0.8,1.2,1.3,2,1c0.5-0.2,0.8-0.5,1-1l1.6-4.6
		c0.2-0.5,0.5-0.8,1-1l4.6-1.6c0.8-0.3,1.3-1.2,1-2c-0.2-0.5-0.5-0.8-1-1l-4.6-1.6c-0.5-0.2-0.8-0.5-1-1l-1.6-4.6
		c-0.3-0.8-1.2-1.3-2-1c-0.5,0.2-0.8,0.5-1,1l-1.6,4.6c-0.2,0.5-0.5,0.8-1,1l-4.6,1.6c-0.8,0.3-1.3,1.2-1,2
		C134.3,291.4,134.6,291.7,135.1,291.9z"/>
	<path class="st27" d="M397.1,352l-5.5,1.9c-1,0.3-1.5,1.4-1.2,2.4c0.2,0.6,0.6,1,1.2,1.2l5.5,1.9c0.5,0.2,1,0.6,1.2,1.2l1.9,5.5
		c0.3,1,1.4,1.5,2.4,1.2c0.6-0.2,1-0.6,1.2-1.2l1.9-5.5c0.2-0.6,0.6-1,1.2-1.2l5.5-1.9c1-0.3,1.5-1.4,1.2-2.4
		c-0.2-0.6-0.6-1-1.2-1.2l-5.5-1.9c-0.6-0.2-1-0.6-1.2-1.2l-1.9-5.5c-0.3-1-1.4-1.5-2.4-1.2c-0.6,0.2-1,0.6-1.2,1.2l-1.9,5.5
		C398.1,351.3,397.7,351.8,397.1,352z"/>
	<path class="st26" d="M104.4,796l-3.3-1.1c-0.3-0.1-0.6-0.4-0.7-0.7l-1.1-3.3c-0.2-0.6-0.8-0.9-1.4-0.7c-0.3,0.1-0.6,0.4-0.7,0.7
		l-1.1,3.3c-0.1,0.3-0.4,0.6-0.7,0.7l-3.3,1.1c-0.6,0.2-0.9,0.8-0.7,1.4c0.1,0.3,0.4,0.6,0.7,0.7l3.3,1.1c0.3,0.1,0.6,0.4,0.7,0.7
		l1.1,3.3c0.2,0.6,0.8,0.9,1.4,0.7c0.3-0.1,0.6-0.4,0.7-0.7l1.1-3.3c0.1-0.3,0.4-0.6,0.7-0.7l3.3-1.1c0.6-0.2,0.9-0.8,0.7-1.4
		C105,796.4,104.7,796.1,104.4,796z"/>
	<path class="st42" d="M399.8,877.6l-3.3-1.1c-0.3-0.1-0.6-0.4-0.7-0.7l-1.1-3.3c-0.2-0.6-0.8-0.9-1.4-0.7c-0.3,0.1-0.6,0.4-0.7,0.7
		l-1.1,3.3c-0.1,0.3-0.4,0.6-0.7,0.7l-3.3,1.1c-0.6,0.2-0.9,0.9-0.7,1.4c0.1,0.3,0.4,0.6,0.7,0.7l3.3,1.1c0.3,0.1,0.6,0.4,0.7,0.7
		l1.1,3.3c0.2,0.6,0.8,0.9,1.4,0.7c0.3-0.1,0.6-0.4,0.7-0.7l1.1-3.3c0.1-0.3,0.4-0.6,0.7-0.7l3.3-1.1c0.6-0.2,0.9-0.9,0.7-1.4
		C400.4,877.9,400.1,877.7,399.8,877.6z"/>
	<path class="st43" d="M298.8,925.5l-3.3-1.1c-0.3-0.1-0.6-0.4-0.7-0.7l-1.1-3.3c-0.2-0.6-0.9-0.9-1.4-0.7c-0.3,0.1-0.6,0.4-0.7,0.7
		l-1.1,3.3c-0.1,0.3-0.4,0.6-0.7,0.7l-3.3,1.1c-0.6,0.2-0.9,0.9-0.7,1.4c0.1,0.3,0.4,0.6,0.7,0.7l3.3,1.1c0.3,0.1,0.6,0.4,0.7,0.7
		l1.1,3.3c0.2,0.6,0.9,0.9,1.4,0.7c0.3-0.1,0.6-0.4,0.7-0.7l1.1-3.3c0.1-0.3,0.4-0.6,0.7-0.7l3.3-1.1c0.6-0.2,0.9-0.9,0.7-1.4
		C299.3,925.9,299.1,925.7,298.8,925.5z"/>
	<path class="st43" d="M185.8,31.3l-3.3-1.1c-0.3-0.1-0.6-0.4-0.7-0.7l-1.1-3.3c-0.2-0.6-0.8-0.9-1.4-0.7c-0.3,0.1-0.6,0.4-0.7,0.7
		l-1.1,3.3c-0.1,0.3-0.4,0.6-0.7,0.7l-3.3,1.1c-0.6,0.2-0.9,0.9-0.7,1.4c0.1,0.3,0.4,0.6,0.7,0.7l3.3,1.1c0.3,0.1,0.6,0.4,0.7,0.7
		l1.1,3.3c0.2,0.6,0.8,0.9,1.4,0.7c0.3-0.1,0.6-0.4,0.7-0.7l1.1-3.3c0.1-0.3,0.4-0.6,0.7-0.7l3.3-1.1c0.6-0.2,0.9-0.9,0.7-1.4
		C186.4,31.7,186.1,31.4,185.8,31.3z"/>
	<path class="st43" d="M490.7,463.9c0.5,0.2,0.9,0.6,1.1,1.1l1.8,5.3c0.3,0.9,1.3,1.5,2.3,1.2c0.5-0.2,1-0.6,1.1-1.1l1.8-5.3
		c0.2-0.5,0.6-0.9,1.1-1.1l5.3-1.8c0.9-0.3,1.5-1.4,1.1-2.3c-0.2-0.5-0.6-0.9-1.1-1.1l-5.3-1.8c-0.5-0.2-0.9-0.6-1.1-1.1l-1.8-5.3
		c-0.3-0.9-1.3-1.5-2.3-1.1c-0.5,0.2-1,0.6-1.1,1.1l-1.8,5.3c-0.2,0.5-0.6,0.9-1.1,1.1l-5.3,1.8c-0.9,0.3-1.5,1.4-1.1,2.3
		c0.2,0.5,0.6,0.9,1.1,1.1L490.7,463.9z"/>
	<path class="st43" d="M318.7,607.3l-5.3-1.8c-0.5-0.2-0.9-0.6-1.1-1.1l-1.8-5.3c-0.3-0.9-1.3-1.5-2.3-1.1c-0.5,0.2-1,0.6-1.1,1.1
		l-1.8,5.3c-0.2,0.5-0.6,0.9-1.1,1.1l-5.3,1.8c-0.9,0.3-1.5,1.3-1.1,2.3c0.2,0.5,0.6,1,1.1,1.1l5.3,1.8c0.5,0.2,0.9,0.6,1.1,1.1
		l1.8,5.3c0.3,0.9,1.3,1.5,2.3,1.1c0.5-0.2,1-0.6,1.1-1.1l1.8-5.3c0.2-0.5,0.6-0.9,1.1-1.1l5.3-1.8c0.9-0.3,1.5-1.3,1.1-2.3
		C319.7,607.9,319.2,607.5,318.7,607.3z"/>
	<path class="st27" d="M355.2,807.2l-3.9-1.3c-0.4-0.1-0.7-0.4-0.8-0.8l-1.4-3.9c-0.2-0.7-1-1.1-1.7-0.8c-0.4,0.1-0.7,0.4-0.8,0.8
		l-1.3,3.9c-0.1,0.4-0.4,0.7-0.8,0.8l-3.9,1.3c-0.7,0.2-1.1,1-0.8,1.7c0.1,0.4,0.4,0.7,0.8,0.8l3.9,1.3c0.4,0.1,0.7,0.4,0.8,0.8
		l1.3,3.9c0.3,0.7,1,1.1,1.7,0.8c0.4-0.1,0.7-0.4,0.8-0.8l1.4-3.9c0.1-0.4,0.4-0.7,0.8-0.8l3.9-1.3c0.7-0.3,1.1-1,0.8-1.7
		C355.8,807.6,355.5,807.3,355.2,807.2z"/>
	<path class="st27" d="M58.5,902l-3.9-1.3c-0.4-0.1-0.7-0.4-0.8-0.8l-1.3-3.9c-0.3-0.7-1-1.1-1.7-0.8c-0.4,0.1-0.7,0.4-0.8,0.8
		l-1.3,3.9c-0.1,0.4-0.4,0.7-0.8,0.8l-3.9,1.3c-0.7,0.3-1.1,1-0.8,1.7c0.1,0.4,0.4,0.7,0.8,0.8l3.9,1.3c0.4,0.1,0.7,0.4,0.8,0.8
		l1.3,3.9c0.2,0.7,1,1.1,1.7,0.8c0.4-0.1,0.7-0.5,0.8-0.9l1.3-3.9c0.1-0.4,0.4-0.7,0.8-0.8l3.9-1.3c0.7-0.2,1.1-1,0.8-1.7
		C59.2,902.5,58.9,902.2,58.5,902z"/>
	<circle class="st42" cx="364.5" cy="690.6" r="5.9"/>
	<path class="st44" d="M122.5,642.9c-2,0-3.6,1.6-3.6,3.6s1.6,3.6,3.6,3.6c2,0,3.6-1.6,3.6-3.6S124.5,642.9,122.5,642.9z"/>
	<circle class="st28" cx="535.9" cy="424.2" r="3.6"/>
	<path class="st27" d="M462.4,193.4l3.9,1.4c0.4,0.1,0.7,0.4,0.8,0.8l1.3,3.9c0.2,0.7,1,1.1,1.7,0.8c0.4-0.1,0.7-0.4,0.8-0.8
		l1.3-3.9c0.1-0.4,0.4-0.7,0.8-0.8l3.9-1.4c0.7-0.2,1.1-1,0.8-1.7c-0.1-0.4-0.4-0.7-0.8-0.8l-3.9-1.3c-0.4-0.1-0.7-0.4-0.8-0.8
		l-1.3-3.9c-0.3-0.7-1-1.1-1.7-0.8c-0.4,0.1-0.7,0.4-0.8,0.8l-1.3,3.9c-0.1,0.4-0.4,0.7-0.8,0.8l-3.9,1.3c-0.7,0.2-1.1,1-0.8,1.7
		C461.7,192.9,462,193.2,462.4,193.4z"/>
	<path class="st27" d="M270.5,525.9l3.3-1.1c0.6-0.2,0.9-0.8,0.7-1.4c-0.1-0.3-0.4-0.6-0.7-0.7l-3.3-1.1c-0.3-0.1-0.6-0.4-0.7-0.7
		l-1.1-3.3c-0.2-0.6-0.9-0.9-1.4-0.7c-0.3,0.1-0.6,0.4-0.7,0.7l-1.1,3.3c-0.1,0.3-0.4,0.6-0.7,0.7l-3.3,1.1
		c-0.6,0.2-0.9,0.8-0.7,1.4c0.1,0.3,0.4,0.6,0.7,0.7l3.3,1.1c0.3,0.1,0.6,0.4,0.7,0.7l1.1,3.3c0.2,0.6,0.9,0.9,1.4,0.7
		c0.3-0.1,0.6-0.4,0.7-0.7l1.1-3.3C269.9,526.3,270.2,526,270.5,525.9z"/>
	<path class="st28" d="M227.5,481.2l-3.9-1.3c-0.4-0.1-0.7-0.4-0.8-0.8l-1.4-3.9c-0.3-0.7-1-1.1-1.7-0.8c-0.4,0.1-0.7,0.4-0.8,0.8
		l-1.4,3.9c-0.1,0.4-0.4,0.7-0.8,0.8l-3.9,1.3c-0.7,0.3-1.1,1-0.8,1.7c0.1,0.4,0.4,0.7,0.8,0.8l3.9,1.3c0.4,0.1,0.7,0.4,0.8,0.8
		l1.4,3.9c0.2,0.7,1,1.1,1.7,0.8c0.4-0.1,0.7-0.4,0.8-0.8l1.4-3.9c0.1-0.4,0.4-0.7,0.8-0.8l3.9-1.3c0.7-0.2,1.1-1,0.8-1.7
		C228.2,481.7,227.9,481.4,227.5,481.2z"/>
	<circle class="st28" cx="152" cy="872.7" r="3.6"/>
	<circle class="st28" cx="371" cy="233.9" r="3.6"/>
	<path class="st43" d="M109.7,696.6c-2.1,0-3.9,1.7-3.9,3.8s1.7,3.8,3.9,3.8s3.8-1.7,3.8-3.8S111.8,696.6,109.7,696.6z"/>
	<path class="st0" d="M518.1,610.8c6.2,0,11.2-5,11.2-11.2s-5-11.2-11.2-11.2s-11.2,5-11.2,11.2S511.9,610.8,518.1,610.8z
		 M518.1,594.7c2.7,0,4.8,2.2,4.8,4.8s-2.2,4.8-4.8,4.8s-4.8-2.2-4.8-4.8S515.4,594.7,518.1,594.7z"/>
	
		<radialGradient id="SVGID_35_" cx="-345.5582" cy="261.8285" r="627.8418" gradientTransform="matrix(0.5203 0.4378 0.6439 -0.7651 280.7766 795.6297)" gradientUnits="userSpaceOnUse">
		<stop  offset="0" style="stop-color:#15004D"/>
		<stop  offset="0.36" style="stop-color:#15004D"/>
		<stop  offset="0.76" style="stop-color:#15004D;stop-opacity:0.33"/>
		<stop  offset="1" style="stop-color:#15004D;stop-opacity:0"/>
	</radialGradient>
	<path class="st45" d="M518.1,610.8c6.2,0,11.2-5,11.2-11.2s-5-11.2-11.2-11.2s-11.2,5-11.2,11.2S511.9,610.8,518.1,610.8z
		 M518.1,594.7c2.7,0,4.8,2.2,4.8,4.8s-2.2,4.8-4.8,4.8s-4.8-2.2-4.8-4.8S515.4,594.7,518.1,594.7z"/>
	<path class="st46" d="M518.1,610.8c6.2,0,11.2-5,11.2-11.2s-5-11.2-11.2-11.2s-11.2,5-11.2,11.2S511.9,610.8,518.1,610.8z
		 M518.1,594.7c2.7,0,4.8,2.2,4.8,4.8s-2.2,4.8-4.8,4.8s-4.8-2.2-4.8-4.8S515.4,594.7,518.1,594.7z"/>
	<circle class="st47" cx="518.1" cy="599.6" r="4.8"/>
	<path class="st0" d="M520.9,188.6c6.2,0,11.2-5,11.2-11.2s-5-11.2-11.2-11.2s-11.2,5-11.2,11.2S514.8,188.6,520.9,188.6z
		 M520.9,172.6c2.7,0,4.8,2.2,4.8,4.8s-2.2,4.8-4.8,4.8s-4.8-2.2-4.8-4.8S518.3,172.6,520.9,172.6z"/>
	
		<radialGradient id="SVGID_36_" cx="-345.5582" cy="261.8285" r="627.8418" gradientTransform="matrix(0.5203 0.4378 0.6439 -0.7651 280.7766 795.6297)" gradientUnits="userSpaceOnUse">
		<stop  offset="0" style="stop-color:#15004D"/>
		<stop  offset="0.36" style="stop-color:#15004D"/>
		<stop  offset="0.76" style="stop-color:#15004D;stop-opacity:0.33"/>
		<stop  offset="1" style="stop-color:#15004D;stop-opacity:0"/>
	</radialGradient>
	<path class="st48" d="M520.9,188.6c6.2,0,11.2-5,11.2-11.2s-5-11.2-11.2-11.2s-11.2,5-11.2,11.2S514.8,188.6,520.9,188.6z
		 M520.9,172.6c2.7,0,4.8,2.2,4.8,4.8s-2.2,4.8-4.8,4.8s-4.8-2.2-4.8-4.8S518.3,172.6,520.9,172.6z"/>
	<path class="st46" d="M520.9,188.6c6.2,0,11.2-5,11.2-11.2s-5-11.2-11.2-11.2s-11.2,5-11.2,11.2S514.8,188.6,520.9,188.6z
		 M520.9,172.6c2.7,0,4.8,2.2,4.8,4.8s-2.2,4.8-4.8,4.8s-4.8-2.2-4.8-4.8S518.3,172.6,520.9,172.6z"/>
	<circle class="st47" cx="520.9" cy="177.5" r="4.8"/>
</g>
</svg>
